<?xml version="1.0" standalone="no"?>
<!DOCTYPE svg PUBLIC "-//W3C//DTD SVG 1.1//EN" "http://www.w3.org/Graphics/SVG/1.1/DTD/svg11.dtd" >
<svg xmlns="http://www.w3.org/2000/svg">
<metadata>Generated by IcoMoon</metadata>
<defs>
<font id="icomoon" horiz-adv-x="1024">
<font-face units-per-em="1024" ascent="960" descent="-64" />
<missing-glyph horiz-adv-x="1024" />
<glyph unicode="&#x20;" horiz-adv-x="512" d="" />
<glyph unicode="&#xe900;" glyph-name="tt-cart-icon" d="M941.056 609.792c0 3.072 0 7.168-1.024 10.24-2.048 9.216-9.216 15.36-17.408 18.432-6.144 2.048-13.312 4.096-20.48 4.096-44.032 0-87.040 0-131.072 0 0 0-1.024 0-1.024 0 0-71.68 0-144.384 0-216.064-57.344 0-114.688 0-172.032 0 0 71.68 0 144.384 0 216.064-57.344 0-114.688 0-171.008 0 0-71.68 0-144.384 0-216.064-57.344 0-114.688 0-172.032 0 0 71.68 0 143.36 0 216.064-1.024 0-2.048 0-3.072 0-41.984 0-82.944 0-124.928 0-10.24 0-19.456-2.048-27.648-8.192-9.216-7.168-13.312-16.384-15.36-27.648 0-2.048-1.024-4.096-1.024-5.12 0-190.464 0-380.928 0-572.416 1.024-4.096 1.024-8.192 2.048-12.288 6.144-35.84 33.792-61.44 69.632-65.536 2.048 0 4.096-1.024 6.144-1.024 234.496 0 468.992 0 703.488 0 5.12 1.024 9.216 1.024 14.336 2.048 31.744 7.168 55.296 30.72 60.416 62.464 1.024 7.168 2.048 15.36 2.048 22.528 0 84.992 0 168.96 0 253.952 0 106.496 0 212.992 0 318.464zM297.984 469.504c28.672 0 57.344 0 86.016 0 0 1.024 0 2.048 0 3.072 0 69.632 0 140.288 0 209.92 0 10.24 1.024 19.456 2.048 29.696 3.072 24.576 10.24 48.128 20.48 70.656 10.24 20.48 23.552 38.912 41.984 53.248 16.384 12.288 33.792 20.48 54.272 22.528 17.408 2.048 33.792 0 51.2-4.096 35.84-9.216 62.464-30.72 76.8-65.536 8.192-18.432 10.24-38.912 10.24-59.392 0-86.016 0-171.008 0-257.024 0-1.024 0-2.048 0-3.072 28.672 0 57.344 0 86.016 0 0 1.024 0 2.048 0 4.096 0 83.968 0 166.912 0 250.88 0 12.288 0 25.6-2.048 37.888-3.072 23.552-8.192 46.080-18.432 67.584-19.456 43.008-49.152 74.752-92.16 95.232-22.528 10.24-46.080 16.384-69.632 18.432-20.48 2.048-40.96 3.072-60.416 0-28.672-4.096-54.272-13.312-78.848-28.672-28.672-19.456-51.2-45.056-67.584-74.752-26.624-47.104-38.912-99.328-39.936-153.6 0-71.68 0-143.36 0-214.016 0-1.024 0-2.048 0-3.072z" />
<glyph unicode="&#xe901;" glyph-name="tt-right-arrow" d="M633.856 75.264c-20.48 20.48-40.96 39.936-61.44 60.416 90.112 90.112 180.224 179.2 271.36 269.312-276.48 0-552.96 0-829.44 0 0 28.672 0 57.344 0 86.016 276.48 0 551.936 0 829.44 0-90.112 90.112-180.224 179.2-271.36 269.312 20.48 20.48 40.96 39.936 61.44 60.416 124.928-123.904 249.856-248.832 375.808-372.736-125.952-123.904-250.88-248.832-375.808-372.736z" />
<glyph unicode="&#xe902;" glyph-name="tt-like-icon" d="M610.304 863.744c36.864 21.504 73.728 32.768 109.568 33.792s71.68-5.12 107.52-18.432c34.816-13.312 66.56-32.768 93.184-57.344s48.128-55.296 64.512-90.112c16.384-34.816 24.576-71.68 24.576-110.592 0-33.792-10.24-69.632-30.72-105.472s-48.128-73.728-84.992-111.616c-36.864-37.888-74.752-76.8-114.688-114.688s-84.992-83.968-136.192-137.216c-50.176-51.2-94.208-103.424-131.072-154.624-37.888 51.2-80.896 102.4-132.096 155.648-50.176 53.248-95.232 98.304-135.168 137.216-39.936 37.888-77.824 75.776-114.688 114.688-36.864 37.888-64.512 75.776-84.992 111.616s-30.72 71.68-30.72 105.472c0 37.888 8.192 74.752 25.6 110.592 17.408 34.816 38.912 65.536 66.56 90.112s58.368 44.032 94.208 57.344c35.84 13.312 71.68 19.456 107.52 18.432s71.68-12.288 108.544-34.816c36.864-21.504 67.584-53.248 94.208-94.208 29.696 41.984 62.464 72.704 99.328 94.208z" />
<glyph unicode="&#xe903;" glyph-name="tt-minus-icon" d="M14.336 364.032c0 56.32 0 111.616 0 167.936 331.776 0 663.552 0 995.328 0 0-56.32 0-111.616 0-167.936-331.776 0-663.552 0-995.328 0z" />
<glyph unicode="&#xe904;" glyph-name="tt-plus-icon" d="M1008.64 365.056c-1.024 0-2.048 0-3.072 0-135.168 0-271.36 0-406.528 0-1.024 0-2.048 0-4.096 0 0-138.24 0-275.456 0-413.696-55.296 0-110.592 0-165.888 0 0 138.24 0 275.456 0 413.696-138.24 0-275.456 0-413.696 0 0 55.296 0 110.592 0 165.888 138.24 0 275.456 0 413.696 0 0 1.024 0 2.048 0 3.072 0 136.192 0 272.384 0 408.576 0 1.024 0 2.048 0 3.072 55.296 0 110.592 0 165.888 0 0-1.024 0-2.048 0-3.072 0-136.192 0-272.384 0-408.576 0-1.024 0-2.048 0-3.072 1.024 0 3.072 0 4.096 0 136.192 0 271.36 0 407.552 0 1.024 0 2.048 0 3.072 0-1.024-55.296-1.024-110.592-1.024-165.888z" />
<glyph unicode="&#xe905;" glyph-name="tt-coma-icon" d="M14.336 449.024c0-31.744 3.072-63.488 10.24-94.208 22.528-98.304 74.752-179.2 153.6-242.688 53.248-41.984 112.64-68.608 179.2-81.92 26.624-5.12 53.248-8.192 80.896-8.192 1.024 0 2.048 0 3.072 0 0 47.104 0 94.208 0 142.336-77.824 1.024-145.408 28.672-200.704 83.968s-81.92 122.88-83.968 200.704c95.232 0 189.44 0 284.672 0 0 1.024 0 3.072 0 4.096 0 139.264 0 279.552 0 418.816 0 1.024 0 2.048 0 4.096-142.336 0-284.672 0-427.008 0 0-143.36 0-285.696 0-427.008zM729.088 448c92.16 0 184.32 0 276.48 0 1.024 0 3.072 0 4.096 0 0 142.336 0 283.648 0 425.984-142.336 0-284.672 0-427.008 0 0-1.024 0-2.048 0-4.096 0-140.288 0-280.576 0-419.84 0-29.696 3.072-58.368 8.192-87.040 16.384-77.824 50.176-146.432 104.448-203.776 84.992-90.112 189.44-136.192 313.344-137.216 0 47.104 0 94.208 0 142.336-21.504 0-43.008 2.048-63.488 7.168-75.776 18.432-134.144 60.416-176.128 124.928-21.504 33.792-35.84 70.656-40.96 110.592-2.048 13.312-2.048 26.624-3.072 39.936 0 1.024 0 1.024 0 2.048 2.048-1.024 3.072-1.024 4.096-1.024z" />
<glyph unicode="&#xe906;" glyph-name="tt-facebook-icon" d="M372.736 448c-33.792 0-67.584 0-100.352 0-1.024 2.048-1.024 194.56 0 198.656 5.12 0 11.264 0 16.384 0s11.264 0 16.384 0c5.12 0 11.264 0 16.384 0s11.264 0 16.384 0c5.12 0 11.264 0 16.384 0s11.264 0 17.408 0c0 1.024 0 2.048 0 3.072 0 28.672 0 56.32 0 84.992 0 19.456 2.048 39.936 6.144 58.368 6.144 24.576 15.36 48.128 29.696 69.632 21.504 31.744 50.176 53.248 84.992 66.56 16.384 6.144 32.768 10.24 49.152 12.288 15.36 2.048 31.744 3.072 48.128 3.072 34.816 0 69.632 0 103.424 0 14.336 0 29.696 0 44.032 0 1.024 0 1.024 0 2.048 0 0-56.32 0-113.664 0-169.984-1.024 0-2.048 0-3.072 0-35.84 0-72.704 0-108.544 0-6.144 0-11.264-1.024-16.384-2.048-15.36-5.12-24.576-15.36-27.648-30.72-1.024-4.096-1.024-9.216-1.024-14.336 0-25.6 0-51.2 0-77.824 0-1.024 0-1.024 0-2.048 0 0 0 0 0 0s0 0 0 0 0 0 0 0 0 0 1.024 0c52.224 0 105.472 0 157.696 0 0 0 0 0 0 0 0-2.048 0-4.096 0-6.144-1.024-11.264-2.048-21.504-3.072-32.768-1.024-12.288-2.048-24.576-3.072-36.864-1.024-10.24-2.048-20.48-3.072-30.72s-2.048-20.48-3.072-30.72c-1.024-8.192-1.024-16.384-2.048-24.576-1.024-10.24-2.048-20.48-3.072-30.72 0-2.048 0-4.096-1.024-6.144-50.176 0-99.328 0-149.504 0 0 0 0 0 0 0s0 0 0 0 0 0 0-1.024c0 0 0 0 0 0s0-1.024 0-1.024c0-164.864 0-329.728 0-493.568 0 0 0 0 0-1.024 0 0 0 0 0 0-2.048-1.024-197.632-1.024-201.728 0 1.024 163.84 1.024 329.728 1.024 495.616z" />
<glyph unicode="&#xe907;" glyph-name="tt-instagram-icon" d="M1009.664 756.224c0-205.824 0-410.624 0-616.448 0-1.024 0-2.048 0-4.096-1.024-13.312-2.048-25.6-6.144-37.888-22.528-83.968-98.304-142.336-185.344-142.336-203.776 0-407.552 0-611.328 0-13.312 0-26.624 1.024-39.936 4.096-89.088 19.456-152.576 96.256-152.576 187.392 0 200.704 0 401.408 0 602.112 0 9.216 1.024 18.432 2.048 26.624 6.144 47.104 27.648 86.016 63.488 116.736 36.864 32.768 79.872 48.128 129.024 48.128 201.728 0 404.48 0 606.208 0 12.288 0 24.576-1.024 36.864-3.072 47.104-9.216 86.016-31.744 115.712-68.608 22.528-27.648 36.864-60.416 40.96-96.256 0-5.12 0-11.264 1.024-16.384zM763.904 549.376c23.552-59.392 26.624-118.784 8.192-179.2s-55.296-108.544-107.52-144.384c-93.184-63.488-216.064-62.464-309.248 2.048-46.080 31.744-79.872 74.752-99.328 126.976-23.552 64.512-22.528 130.048 3.072 194.56-49.152 0-98.304 0-148.48 0 0-1.024 0-2.048 0-3.072 0-133.12 0-266.24 0-399.36 0-8.192 1.024-16.384 3.072-23.552 10.24-41.984 48.128-70.656 92.16-70.656 203.776 0 406.528 0 610.304 0 5.12 0 10.24 0 14.336 1.024 46.080 6.144 80.896 47.104 80.896 93.184 0 133.12 0 267.264 0 400.384 0 1.024 0 2.048 0 3.072-48.128-1.024-98.304-1.024-147.456-1.024zM512 273.92c8.192 1.024 16.384 1.024 24.576 2.048 45.056 6.144 81.92 26.624 110.592 61.44 32.768 39.936 46.080 87.040 37.888 138.24-6.144 38.912-24.576 72.704-54.272 99.328-40.96 36.864-89.088 52.224-143.36 45.056-36.864-5.12-69.632-20.48-96.256-47.104-47.104-47.104-64.512-103.424-48.128-167.936 19.456-77.824 89.088-130.048 168.96-131.072zM893.952 826.88c-56.32 0-112.64 0-167.936 0 0-56.32 0-111.616 0-166.912 56.32 0 111.616 0 167.936 0 0 56.32 0 111.616 0 166.912z" />
<glyph unicode="&#xe908;" glyph-name="tt-twitter-icon" d="M345.088 77.312c-11.264 0-22.528 0-34.816 0-1.024 0-2.048 0-3.072 0-36.864 1.024-72.704 5.12-108.544 12.288-64.512 13.312-124.928 36.864-182.272 69.632-1.024 0-1.024 1.024-2.048 1.024 109.568-10.24 210.944 14.336 301.056 77.824-41.984 2.048-79.872 12.288-114.688 35.84s-60.416 54.272-74.752 94.208c30.72-5.12 61.44-4.096 92.16 3.072-7.168 2.048-14.336 3.072-21.504 5.12-37.888 11.264-69.632 30.72-96.256 60.416s-41.984 64.512-45.056 103.424c0 5.12-1.024 11.264-1.024 16.384 29.696-14.336 59.392-22.528 92.16-23.552-41.984 27.648-71.68 63.488-84.992 111.616-12.288 49.152-4.096 95.232 21.504 137.216 113.664-122.88 254.976-185.344 421.888-195.584 0 1.024 0 2.048 0 3.072-5.12 22.528-6.144 46.080-2.048 68.608 6.144 34.816 21.504 66.56 46.080 92.16 53.248 55.296 118.784 74.752 193.536 63.488 43.008-6.144 79.872-25.6 111.616-54.272 1.024-1.024 2.048-1.024 3.072-1.024 44.032 8.192 86.016 22.528 125.952 44.032 1.024 0 1.024 1.024 2.048 1.024-16.384-46.080-47.104-78.848-88.064-103.424 39.936 4.096 77.824 13.312 114.688 28.672 0-1.024-1.024-2.048-2.048-3.072-26.624-35.84-58.368-65.536-95.232-91.136-3.072-2.048-4.096-4.096-4.096-7.168 2.048-46.080-3.072-92.16-14.336-137.216-35.84-126.976-108.544-231.424-218.112-308.224-93.184-65.536-198.656-97.28-311.296-103.424-7.168-1.024-14.336-1.024-21.504-1.024z" />
<glyph unicode="&#xe909;" glyph-name="tt-youtube-icon" d="M516.096 804.352c38.912 0 77.824-1.024 116.736-1.024 41.984-1.024 84.992-2.048 126.976-4.096 23.552-1.024 47.104-2.048 71.68-3.072 18.432-1.024 36.864-2.048 55.296-5.12 32.768-5.12 60.416-21.504 79.872-49.152 10.24-14.336 16.384-30.72 21.504-47.104 7.168-21.504 11.264-43.008 12.288-65.536 2.048-24.576 4.096-48.128 5.12-72.704 1.024-23.552 2.048-46.080 2.048-69.632 0-33.792 0-66.56 0-100.352 0-24.576-2.048-49.152-3.072-73.728-1.024-20.48-3.072-40.96-5.12-61.44-4.096-29.696-11.264-58.368-25.6-84.992-15.36-28.672-39.936-46.080-69.632-56.32-12.288-4.096-24.576-6.144-36.864-7.168-34.816-2.048-69.632-4.096-103.424-6.144-69.632-3.072-139.264-5.12-208.896-5.12-49.152 0-99.328 0-148.48 1.024-50.176 1.024-100.352 2.048-150.528 4.096-25.6 1.024-51.2 2.048-75.776 4.096-21.504 2.048-44.032 4.096-64.512 11.264-27.648 10.24-50.176 26.624-65.536 52.224-7.168 12.288-11.264 25.6-15.36 38.912-6.144 20.48-10.24 40.96-11.264 62.464-2.048 23.552-4.096 48.128-5.12 71.68-1.024 24.576-2.048 48.128-2.048 72.704 0 33.792 0 67.584 0 101.376 1.024 26.624 2.048 54.272 4.096 80.896 0 19.456 2.048 38.912 4.096 57.344 4.096 27.648 11.264 54.272 24.576 79.872 13.312 24.576 33.792 40.96 58.368 52.224 14.336 6.144 28.672 9.216 44.032 11.264 52.224 5.12 104.448 7.168 156.672 8.192 67.584 1.024 134.144 2.048 201.728 3.072 3.072 0 5.12 0 6.144 0 0 0 0 0 0 0zM409.6 600.576c0-95.232 0-189.44 0-284.672 89.088 47.104 179.2 94.208 268.288 141.312-90.112 48.128-179.2 96.256-268.288 143.36z" />
<glyph unicode="&#xe90a;" glyph-name="tt-close-icon" d="M15.36 76.288c123.904 122.88 247.808 247.808 371.712 371.712-123.904 123.904-247.808 248.832-371.712 372.736 40.96 40.96 82.944 82.944 123.904 123.904 123.904-123.904 247.808-247.808 372.736-372.736 123.904 124.928 248.832 248.832 372.736 372.736 41.984-41.984 82.944-82.944 124.928-124.928-124.928-122.88-248.832-247.808-373.76-371.712 123.904-123.904 248.832-248.832 372.736-372.736-40.96-40.96-82.944-82.944-123.904-123.904-122.88 123.904-247.808 248.832-371.712 372.736-124.928-124.928-248.832-249.856-372.736-372.736-41.984 41.984-82.944 82.944-124.928 124.928z" />
<glyph unicode="&#xe90b;" glyph-name="right-arrow" d="M235.52 846.336c0 0 0 1.024 0 1.024 1.024 1.024 2.048 1.024 2.048 2.048 21.504 23.552 43.008 46.080 64.512 69.632 8.192 8.192 16.384 17.408 23.552 25.6 1.024-1.024 2.048-2.048 3.072-3.072 59.392-63.488 118.784-128 178.176-191.488 84.992-91.136 168.96-182.272 253.952-273.408 9.216-9.216 18.432-19.456 27.648-28.672 0 0 0 0 0-1.024-1.024-1.024-2.048-2.048-3.072-3.072-43.008-46.080-84.992-92.16-128-138.24-109.568-117.76-218.112-234.496-327.68-352.256-1.024-1.024-2.048-3.072-4.096-4.096-5.12 5.12-10.24 10.24-14.336 15.36-25.6 27.648-50.176 54.272-75.776 81.92 0 0 0 0 0 1.024 2.048 2.048 4.096 4.096 6.144 6.144 46.080 49.152 91.136 98.304 137.216 147.456 72.704 78.848 145.408 157.696 219.136 235.52 3.072 3.072 6.144 6.144 9.216 10.24-1.024 1.024-2.048 2.048-3.072 3.072-31.744 33.792-63.488 68.608-95.232 102.4-90.112 97.28-180.224 194.56-270.336 291.84-1.024 1.024-2.048 2.048-3.072 2.048z" />
<glyph unicode="&#xe90c;" glyph-name="tt-lock-icon" d="M850.944 538.112c32.768 0 64.512 0 96.256 0 0-196.608 0-392.192 0-587.776-289.792 0-579.584 0-870.4 0 0 195.584 0 391.168 0 587.776 31.744 0 64.512 0 96.256 0 0 2.048 0 4.096 0 5.12 0 28.672 0 56.32 0 84.992 0 80.896 28.672 150.528 83.968 208.896 52.224 56.32 116.736 90.112 192.512 102.4 95.232 16.384 183.296-2.048 263.168-56.32 62.464-43.008 105.472-101.376 125.952-174.080 7.168-26.624 11.264-54.272 11.264-81.92s0-55.296 0-82.944c1.024-2.048 1.024-4.096 1.024-6.144zM753.664 538.112c0 1.024 0 3.072 0 4.096 0 29.696 0 58.368 0 88.064 0 13.312-1.024 25.6-4.096 38.912-10.24 52.224-36.864 95.232-77.824 129.024-56.32 46.080-121.856 63.488-193.536 54.272-53.248-6.144-99.328-28.672-138.24-65.536-43.008-40.96-67.584-92.16-69.632-152.576-1.024-30.72 0-62.464 0-93.184 0-1.024 0-2.048 0-3.072 160.768 0 322.56 0 483.328 0zM576.512 93.696c0 2.048 0 3.072 0 5.12 0 45.056 0 90.112 0 135.168 0 3.072 1.024 5.12 3.072 7.168 31.744 28.672 37.888 73.728 16.384 109.568-28.672 46.080-92.16 59.392-139.264 28.672-50.176-32.768-56.32-99.328-11.264-139.264 2.048-2.048 2.048-3.072 2.048-6.144 0-45.056 0-90.112 0-135.168 0-2.048 0-3.072 0-5.12 43.008 0 86.016 0 129.024 0z" />
<glyph unicode="&#xe90d;" glyph-name="tt-cupon-icon" d="M14.336 562.688c0 62.464 0 124.928 0 187.392 0 1.024 0 2.048 1.024 3.072 1.024 10.24 5.12 15.36 15.36 16.384 4.096 1.024 8.192 1.024 12.288 1.024 172.032 0 344.064 0 516.096 0 140.288 0 281.6 0 421.888 0 3.072 0 7.168 0 10.24-1.024 10.24-1.024 15.36-6.144 17.408-15.36 1.024-4.096 1.024-8.192 1.024-12.288 0-57.344 0-114.688 0-172.032 0-3.072 0-7.168 0-10.24-2.048-9.216-6.144-13.312-16.384-15.36-2.048 0-4.096-1.024-7.168-1.024-7.168-1.024-14.336-1.024-20.48-3.072-56.32-14.336-87.040-75.776-63.488-130.048 15.36-33.792 41.984-53.248 78.848-56.32 4.096 0 9.216-1.024 13.312-1.024 7.168-1.024 12.288-6.144 13.312-13.312 1.024-4.096 1.024-7.168 1.024-11.264 0-58.368 0-116.736 0-176.128 0-3.072 0-6.144-1.024-9.216-1.024-10.24-6.144-14.336-15.36-16.384-4.096-1.024-8.192-1.024-12.288-1.024-247.808 0-495.616 0-744.448 0-63.488 0-126.976 0-189.44 0-5.12 0-11.264 1.024-16.384 1.024-7.168 1.024-12.288 6.144-14.336 13.312-1.024 3.072-1.024 6.144-1.024 9.216 0 5.12 0 10.24 0 15.36 0 56.32 0 112.64 0 168.96 0 0 0 1.024 0 1.024 2.048 11.264 6.144 15.36 17.408 17.408 6.144 1.024 12.288 1.024 17.408 2.048 55.296 9.216 90.112 62.464 76.8 116.736-10.24 39.936-44.032 68.608-84.992 71.68-4.096 0-9.216 1.024-13.312 2.048-6.144 1.024-10.24 5.12-11.264 11.264-1.024 3.072-1.024 5.12-2.048 7.168zM661.504 671.232c0-50.176 0-99.328 0-148.48 32.768 0 65.536 0 99.328 0 0 50.176 0 99.328 0 148.48-33.792 0-66.56 0-99.328 0zM760.832 224.768c0 50.176 0 99.328 0 148.48-32.768 0-66.56 0-99.328 0 0-50.176 0-99.328 0-148.48 32.768 0 65.536 0 99.328 0z" />
<glyph unicode="&#xe90e;" glyph-name="tt-more-menu-icon" d="M1009.664 440.832c-1.024-5.12-1.024-9.216-2.048-14.336-9.216-38.912-33.792-63.488-70.656-75.776-47.104-15.36-98.304 1.024-125.952 40.96-32.768 47.104-19.456 109.568 28.672 142.336 16.384 10.24 33.792 16.384 52.224 18.432 1.024 0 1.024 0 2.048 0 5.12 0 10.24 0 15.36 0 1.024 0 1.024 0 2.048 0 9.216-1.024 18.432-2.048 26.624-5.12 36.864-13.312 60.416-37.888 69.632-75.776 1.024-5.12 2.048-9.216 2.048-14.336 0-6.144 0-11.264 0-16.384zM131.072 552.448c5.12-1.024 11.264-1.024 16.384-3.072 40.96-10.24 69.632-34.816 80.896-76.8 11.264-40.96-6.144-83.968-41.984-108.544-51.2-35.84-122.88-21.504-156.672 29.696-27.648 43.008-18.432 99.328 20.48 132.096 18.432 15.36 38.912 23.552 62.464 25.6 1.024 0 1.024 0 2.048 0 6.144 1.024 11.264 1.024 16.384 1.024zM504.832 552.448c5.12-1.024 11.264-1.024 16.384-3.072 40.96-10.24 69.632-34.816 80.896-76.8 11.264-40.96-6.144-83.968-41.984-108.544-51.2-35.84-122.88-21.504-156.672 29.696-27.648 43.008-18.432 99.328 20.48 132.096 18.432 15.36 38.912 23.552 62.464 25.6 1.024 0 1.024 0 2.048 0 5.12 1.024 10.24 1.024 16.384 1.024z" />
<glyph unicode="&#xe90f;" glyph-name="tt-share-icon" d="M1008.64 509.44c-1.024 0-1.024-1.024-2.048-1.024-136.192-111.616-272.384-221.184-408.576-331.776-1.024-1.024-1.024-1.024-2.048-2.048 0 55.296 0 110.592 0 166.912-6.144 0-11.264 0-16.384 0-24.576 0-50.176 0-74.752-2.048-100.352-7.168-193.536-35.84-281.6-86.016-49.152-28.672-95.232-61.44-138.24-99.328-23.552-20.48-46.080-41.984-68.608-63.488-1.024-1.024-1.024-1.024-2.048-2.048 0 1.024 0 2.048 0 2.048 0 30.72 3.072 62.464 8.192 93.184 16.384 93.184 54.272 177.152 110.592 251.904 76.8 100.352 174.080 172.032 293.888 214.016 34.816 12.288 70.656 20.48 106.496 25.6 19.456 3.072 39.936 4.096 59.392 4.096 1.024 0 1.024 0 2.048 0 0 55.296 0 109.568 0 165.888 1.024-1.024 2.048-2.048 3.072-2.048 118.784-97.28 237.568-192.512 355.328-288.768 18.432-15.36 36.864-29.696 55.296-45.056 0 0 0 0 0 0z" />
<glyph unicode="&#xe910;" glyph-name="tt-left-arrow" d="M1009.664 403.968c-1.024 0-2.048 0-3.072 0-274.432 0-548.864 0-822.272 0-1.024 0-2.048 0-4.096 0 91.136-92.16 181.248-183.296 271.36-275.456-20.48-20.48-40.96-39.936-62.464-60.416-123.904 125.952-249.856 252.928-374.784 379.904 124.928 126.976 250.88 253.952 374.784 379.904 20.48-20.48 40.96-39.936 62.464-60.416-91.136-92.16-181.248-183.296-271.36-275.456 1.024 0 1.024 0 2.048 0s2.048 0 3.072 0c273.408 0 546.816 0 820.224 0 1.024 0 3.072 0 4.096 0 0-29.696 0-58.368 0-88.064z" />
<glyph unicode="&#xe911;" glyph-name="tt-down-icon" d="M911.36 724.48v0c2.048-1.024 2.048-2.048 3.072-2.048 23.552-21.504 46.080-43.008 69.632-64.512 8.192-8.192 17.408-16.384 25.6-23.552-1.024-1.024-2.048-2.048-3.072-3.072-63.488-59.392-128-118.784-191.488-178.176-91.136-84.992-182.272-168.96-273.408-253.952-9.216-9.216-19.456-18.432-28.672-27.648 0 0 0 0-1.024 0-1.024 1.024-2.048 2.048-3.072 3.072-46.080 43.008-92.16 84.992-138.24 128-117.76 109.568-234.496 218.112-352.256 327.68-1.024 1.024-3.072 2.048-4.096 4.096 5.12 5.12 10.24 10.24 15.36 14.336 27.648 25.6 54.272 50.176 81.92 75.776 0 0 0 0 1.024 0 2.048-2.048 4.096-4.096 6.144-6.144 49.152-46.080 98.304-91.136 147.456-137.216 78.848-72.704 157.696-145.408 235.52-219.136 3.072-3.072 6.144-6.144 10.24-9.216 1.024 1.024 2.048 2.048 3.072 3.072 33.792 31.744 68.608 63.488 102.4 95.232 97.28 90.112 194.56 180.224 291.84 270.336 1.024 1.024 2.048 2.048 2.048 3.072z" />
<glyph unicode="&#xe912;" glyph-name="tt-clock-icon" d="M1001.472 537.088c-10.24 54.272-27.648 106.496-55.296 154.624-59.392 104.448-145.408 177.152-257.024 220.16-27.648 10.24-55.296 18.432-83.968 23.552-15.36 3.072-31.744 4.096-48.128 7.168-13.312 3.072-25.6 2.048-38.912 2.048-12.288 0-23.552 0-35.84 0-1.024 0-2.048 0-3.072 0-13.312-2.048-27.648-3.072-40.96-5.12-34.816-5.12-69.632-14.336-104.448-27.648-55.296-20.48-105.472-50.176-149.504-89.088-40.96-35.84-73.728-77.824-101.376-123.904-21.504-37.888-39.936-76.8-51.2-119.808-8.192-30.72-13.312-61.44-15.36-93.184 0-3.072-1.024-6.144-1.024-9.216 0-19.456 0-38.912 0-58.368 0-1.024 0-2.048 0-3.072 2.048-13.312 3.072-26.624 5.12-40.96 6.144-36.864 15.36-72.704 28.672-107.52 21.504-56.32 51.2-106.496 91.136-151.552 44.032-48.128 95.232-86.016 153.6-115.712 68.608-34.816 141.312-50.176 225.28-51.2 28.672 0 65.536 3.072 101.376 11.264 111.616 25.6 204.8 82.944 277.504 171.008 68.608 82.944 105.472 179.2 111.616 286.72 1.024 41.984-2.048 80.896-8.192 119.808zM855.040 420.352c-123.904 0-248.832 0-372.736 0 0 123.904-1.024 311.296-1.024 435.2 21.504 0 41.984 0 62.464 0 0-103.424 0-269.312 0-372.736 103.424 0 206.848 0 311.296 0 0-21.504 0-41.984 0-62.464z" />
<glyph unicode="&#xe913;" glyph-name="tt-dish-icon" d="M904.192 461.312c-76.8 126.976-188.416 201.728-335.872 223.232 0 1.024 0 2.048 0 3.072 0 9.216-1.024 18.432-3.072 26.624-3.072 12.288-8.192 24.576-19.456 32.768-16.384 13.312-34.816 14.336-54.272 7.168-24.576-9.216-39.936-34.816-36.864-62.464 0-3.072 1.024-5.12 1.024-8.192-114.688-16.384-210.944-66.56-286.72-154.624s-112.64-189.44-113.664-305.152c303.104 0 607.232 0 910.336 0 4.096 56.32-10.24 151.552-61.44 237.568zM14.336 178.688c0-13.312 0-27.648 0-40.96 331.776 0 663.552 0 995.328 0 0 13.312 0 27.648 0 40.96-331.776 0-663.552 0-995.328 0z" />
<glyph unicode="&#xe914;" glyph-name="tt-star-fill-icon" d="M513.024 902.656c13.312 0 23.552-7.168 30.72-20.48 5.12-11.264 10.24-23.552 15.36-34.816 31.744-74.752 63.488-149.504 95.232-224.256 2.048-4.096 3.072-8.192 5.12-12.288 2.048-6.144 6.144-8.192 12.288-9.216 31.744-2.048 62.464-4.096 94.208-6.144 30.72-2.048 61.44-4.096 91.136-6.144 26.624-2.048 53.248-4.096 79.872-5.12 13.312-1.024 27.648-2.048 40.96-3.072 20.48-2.048 34.816-21.504 29.696-40.96-1.024-6.144-4.096-10.24-9.216-14.336-7.168-6.144-14.336-12.288-21.504-17.408-64.512-52.224-130.048-105.472-194.56-157.696-6.144-5.12-13.312-10.24-19.456-15.36s-7.168-8.192-5.12-15.36c5.12-18.432 9.216-36.864 14.336-55.296 19.456-75.776 38.912-150.528 57.344-226.304 2.048-7.168 3.072-14.336 0-21.504-5.12-14.336-19.456-23.552-34.816-21.504-6.144 1.024-12.288 3.072-17.408 6.144-84.992 50.176-169.984 101.376-256 151.552-4.096 2.048-8.192 5.12-13.312 3.072-3.072-1.024-5.12-2.048-8.192-3.072-55.296-32.768-109.568-65.536-164.864-98.304-29.696-17.408-59.392-34.816-89.088-52.224-7.168-4.096-15.36-7.168-23.552-7.168-21.504 0-36.864 19.456-31.744 40.96 15.36 62.464 31.744 124.928 48.128 188.416 6.144 23.552 12.288 47.104 18.432 70.656 2.048 7.168 4.096 14.336 6.144 21.504 3.072 9.216 0 17.408-7.168 23.552-1.024 1.024-3.072 2.048-4.096 3.072-21.504 14.336-40.96 31.744-60.416 48.128-53.248 39.936-106.496 83.968-160.768 128-7.168 6.144-12.288 12.288-15.36 21.504-4.096 16.384 4.096 31.744 21.504 37.888 7.168 2.048 14.336 2.048 21.504 2.048 21.504 2.048 43.008 3.072 64.512 4.096 18.432 1.024 37.888 3.072 56.32 4.096 21.504 1.024 43.008 3.072 64.512 4.096 18.432 1.024 36.864 2.048 55.296 4.096 15.36 1.024 30.72 2.048 46.080 3.072 2.048 0 4.096 0 6.144 0 6.144 0 10.24 3.072 13.312 8.192 4.096 10.24 9.216 21.504 13.312 31.744 33.792 78.848 66.56 156.672 100.352 235.52 2.048 4.096 4.096 8.192 7.168 12.288 6.144 10.24 14.336 14.336 27.648 14.336zM513.024 902.656c13.312 0 24.576-7.168 30.72-20.48 5.12-11.264 10.24-22.528 14.336-33.792 31.744-74.752 63.488-149.504 96.256-225.28 2.048-4.096 3.072-8.192 5.12-12.288 2.048-6.144 6.144-8.192 12.288-9.216 23.552-2.048 47.104-3.072 71.68-5.12 25.6-2.048 51.2-4.096 76.8-5.12 21.504-1.024 41.984-3.072 63.488-4.096 23.552-2.048 48.128-3.072 71.68-5.12 9.216-1.024 17.408-1.024 26.624-2.048 18.432-3.072 31.744-22.528 26.624-39.936-1.024-6.144-5.12-10.24-9.216-14.336-7.168-6.144-14.336-12.288-21.504-17.408-64.512-52.224-130.048-105.472-194.56-157.696-6.144-5.12-13.312-10.24-19.456-15.36s-7.168-8.192-5.12-15.36c5.12-18.432 9.216-36.864 14.336-55.296 19.456-75.776 38.912-150.528 57.344-226.304 2.048-7.168 3.072-14.336 0-21.504-5.12-14.336-19.456-23.552-34.816-21.504-6.144 1.024-12.288 3.072-17.408 6.144-84.992 50.176-169.984 101.376-256 151.552-4.096 2.048-8.192 5.12-13.312 3.072-3.072-1.024-5.12-2.048-8.192-3.072-57.344-33.792-114.688-67.584-172.032-102.4-27.648-16.384-55.296-32.768-81.92-49.152-7.168-4.096-15.36-7.168-23.552-7.168-21.504 0-36.864 19.456-31.744 40.96 16.384 64.512 32.768 128 49.152 191.488 6.144 22.528 11.264 44.032 17.408 66.56 2.048 7.168 4.096 14.336 6.144 21.504 3.072 9.216 0 17.408-7.168 23.552-1.024 1.024-3.072 2.048-4.096 3.072-21.504 14.336-40.96 31.744-60.416 48.128-54.272 41.984-107.52 86.016-161.792 130.048-7.168 6.144-12.288 12.288-15.36 21.504-4.096 16.384 4.096 31.744 21.504 37.888 7.168 2.048 14.336 2.048 21.504 2.048 21.504 2.048 43.008 3.072 64.512 4.096 18.432 1.024 37.888 3.072 56.32 4.096 21.504 1.024 43.008 3.072 64.512 4.096 18.432 1.024 36.864 2.048 55.296 4.096 15.36 1.024 30.72 2.048 46.080 3.072 2.048 0 4.096 0 6.144 0 6.144 0 11.264 3.072 13.312 9.216 4.096 10.24 9.216 20.48 13.312 31.744 33.792 78.848 66.56 156.672 100.352 235.52 2.048 4.096 4.096 8.192 7.168 12.288 6.144 9.216 14.336 13.312 27.648 13.312zM218.112 29.184c0-7.168 2.048-10.24 7.168-9.216 3.072 0 6.144 2.048 9.216 3.072 28.672 16.384 56.32 32.768 83.968 50.176 26.624 15.36 52.224 30.72 78.848 47.104 29.696 18.432 60.416 35.84 90.112 54.272 7.168 4.096 15.36 7.168 23.552 7.168s15.36-2.048 22.528-6.144c15.36-9.216 31.744-19.456 47.104-28.672 31.744-18.432 63.488-37.888 95.232-56.32 27.648-16.384 56.32-32.768 83.968-50.176 11.264-6.144 22.528-13.312 33.792-19.456 2.048-1.024 4.096-1.024 7.168-1.024 4.096 0 6.144 3.072 6.144 7.168 0 2.048 0 5.12-1.024 7.168-2.048 9.216-4.096 17.408-7.168 26.624-14.336 56.32-28.672 112.64-43.008 168.96-7.168 29.696-15.36 59.392-22.528 89.088-1.024 3.072-1.024 7.168 0 10.24 1.024 2.048 1.024 4.096 2.048 6.144 1.024 7.168 5.12 12.288 11.264 16.384 16.384 13.312 33.792 26.624 50.176 40.96 21.504 17.408 43.008 34.816 65.536 53.248 18.432 14.336 35.84 29.696 54.272 44.032 16.384 13.312 32.768 26.624 49.152 39.936 6.144 5.12 12.288 10.24 17.408 15.36 1.024 1.024 1.024 2.048 1.024 4.096 0 4.096-3.072 6.144-6.144 6.144-4.096 0-9.216 1.024-13.312 1.024-33.792 2.048-67.584 5.12-101.376 7.168-28.672 2.048-56.32 4.096-84.992 6.144-32.768 2.048-65.536 4.096-98.304 7.168-7.168 1.024-14.336 2.048-22.528 4.096-2.048 0-3.072 1.024-4.096 2.048-5.12 3.072-10.24 7.168-13.312 13.312-2.048 4.096-4.096 8.192-6.144 12.288-14.336 32.768-27.648 64.512-41.984 97.28-19.456 45.056-38.912 91.136-58.368 136.192-4.096 11.264-9.216 21.504-14.336 31.744-1.024 3.072-4.096 4.096-7.168 4.096-4.096 0-6.144-1.024-7.168-4.096-2.048-4.096-3.072-6.144-4.096-9.216-4.096-10.24-8.192-20.48-13.312-30.72-17.408-40.96-34.816-81.92-52.224-122.88-16.384-36.864-31.744-74.752-48.128-111.616-3.072-6.144-7.168-11.264-12.288-15.36-4.096-3.072-8.192-5.12-12.288-6.144-5.12-1.024-11.264-2.048-16.384-2.048-3.072 0-6.144 0-9.216-1.024-22.528-2.048-44.032-3.072-66.56-5.12-23.552-2.048-48.128-3.072-71.68-5.12-26.624-2.048-52.224-4.096-78.848-5.12-23.552-2.048-47.104-3.072-70.656-5.12-2.048 0-4.096-1.024-6.144-2.048s-3.072-3.072-2.048-6.144c1.024-1.024 2.048-3.072 3.072-4.096 12.288-10.24 24.576-20.48 36.864-30.72 18.432-14.336 35.84-29.696 54.272-44.032 20.48-16.384 39.936-32.768 60.416-49.152 12.288-10.24 24.576-20.48 37.888-30.72 10.24-8.192 20.48-15.36 29.696-23.552 4.096-3.072 8.192-5.12 11.264-8.192 9.216-7.168 14.336-16.384 16.384-28.672 1.024-4.096 1.024-9.216 0-13.312-1.024-6.144-3.072-12.288-4.096-18.432-4.096-14.336-8.192-29.696-12.288-44.032-17.408-68.608-34.816-137.216-52.224-204.8-2.048-6.144-3.072-12.288-4.096-17.408z" />
<glyph unicode="&#xe915;" glyph-name="tt-star-icon" d="M513.024 902.656c13.312 0 24.576-7.168 30.72-20.48 5.12-11.264 10.24-22.528 14.336-33.792 31.744-74.752 63.488-149.504 96.256-225.28 2.048-4.096 3.072-8.192 5.12-12.288 2.048-6.144 6.144-8.192 12.288-9.216 23.552-2.048 47.104-3.072 71.68-5.12 25.6-2.048 51.2-4.096 76.8-5.12 21.504-1.024 41.984-3.072 63.488-4.096 23.552-2.048 48.128-3.072 71.68-5.12 9.216-1.024 17.408-1.024 26.624-2.048 18.432-3.072 31.744-22.528 26.624-39.936-1.024-6.144-5.12-10.24-9.216-14.336-7.168-6.144-14.336-12.288-21.504-17.408-64.512-52.224-130.048-105.472-194.56-157.696-6.144-5.12-13.312-10.24-19.456-15.36s-7.168-8.192-5.12-15.36c5.12-18.432 9.216-36.864 14.336-55.296 19.456-75.776 38.912-150.528 57.344-226.304 2.048-7.168 3.072-14.336 0-21.504-5.12-14.336-19.456-23.552-34.816-21.504-6.144 1.024-12.288 3.072-17.408 6.144-84.992 50.176-169.984 101.376-256 151.552-4.096 2.048-8.192 5.12-13.312 3.072-3.072-1.024-5.12-2.048-8.192-3.072-57.344-33.792-114.688-67.584-172.032-102.4-27.648-16.384-55.296-32.768-81.92-49.152-7.168-4.096-15.36-7.168-23.552-7.168-21.504 0-36.864 19.456-31.744 40.96 16.384 64.512 32.768 128 49.152 191.488 6.144 22.528 11.264 44.032 17.408 66.56 2.048 7.168 4.096 14.336 6.144 21.504 3.072 9.216 0 17.408-7.168 23.552-1.024 1.024-3.072 2.048-4.096 3.072-21.504 14.336-40.96 31.744-60.416 48.128-54.272 41.984-107.52 86.016-161.792 130.048-7.168 6.144-12.288 12.288-15.36 21.504-4.096 16.384 4.096 31.744 21.504 37.888 7.168 2.048 14.336 2.048 21.504 2.048 21.504 2.048 43.008 3.072 64.512 4.096 18.432 1.024 37.888 3.072 56.32 4.096 21.504 1.024 43.008 3.072 64.512 4.096 18.432 1.024 36.864 2.048 55.296 4.096 15.36 1.024 30.72 2.048 46.080 3.072 2.048 0 4.096 0 6.144 0 6.144 0 11.264 3.072 13.312 9.216 4.096 10.24 9.216 20.48 13.312 31.744 33.792 78.848 66.56 156.672 100.352 235.52 2.048 4.096 4.096 8.192 7.168 12.288 6.144 9.216 14.336 13.312 27.648 13.312zM218.112 29.184c0-7.168 2.048-10.24 7.168-9.216 3.072 0 6.144 2.048 9.216 3.072 28.672 16.384 56.32 32.768 83.968 50.176 26.624 15.36 52.224 30.72 78.848 47.104 29.696 18.432 60.416 35.84 90.112 54.272 7.168 4.096 15.36 7.168 23.552 7.168s15.36-2.048 22.528-6.144c15.36-9.216 31.744-19.456 47.104-28.672 31.744-18.432 63.488-37.888 95.232-56.32 27.648-16.384 56.32-32.768 83.968-50.176 11.264-6.144 22.528-13.312 33.792-19.456 2.048-1.024 4.096-1.024 7.168-1.024 4.096 0 6.144 3.072 6.144 7.168 0 2.048 0 5.12-1.024 7.168-2.048 9.216-4.096 17.408-7.168 26.624-14.336 56.32-28.672 112.64-43.008 168.96-7.168 29.696-15.36 59.392-22.528 89.088-1.024 3.072-1.024 7.168 0 10.24 1.024 2.048 1.024 4.096 2.048 6.144 1.024 7.168 5.12 12.288 11.264 16.384 16.384 13.312 33.792 26.624 50.176 40.96 21.504 17.408 43.008 34.816 65.536 53.248 18.432 14.336 35.84 29.696 54.272 44.032 16.384 13.312 32.768 26.624 49.152 39.936 6.144 5.12 12.288 10.24 17.408 15.36 1.024 1.024 1.024 2.048 1.024 4.096 0 4.096-3.072 6.144-6.144 6.144-4.096 0-9.216 1.024-13.312 1.024-33.792 2.048-67.584 5.12-101.376 7.168-28.672 2.048-56.32 4.096-84.992 6.144-32.768 2.048-65.536 4.096-98.304 7.168-7.168 1.024-14.336 2.048-22.528 4.096-2.048 0-3.072 1.024-4.096 2.048-5.12 3.072-10.24 7.168-13.312 13.312-2.048 4.096-4.096 8.192-6.144 12.288-14.336 32.768-27.648 64.512-41.984 97.28-19.456 45.056-38.912 91.136-58.368 136.192-4.096 11.264-9.216 21.504-14.336 31.744-1.024 3.072-4.096 4.096-7.168 4.096-4.096 0-6.144-1.024-7.168-4.096-2.048-4.096-3.072-6.144-4.096-9.216-4.096-10.24-8.192-20.48-13.312-30.72-17.408-40.96-34.816-81.92-52.224-122.88-16.384-36.864-31.744-74.752-48.128-111.616-3.072-6.144-7.168-11.264-12.288-15.36-4.096-3.072-8.192-5.12-12.288-6.144-5.12-1.024-11.264-2.048-16.384-2.048-3.072 0-6.144 0-9.216-1.024-22.528-2.048-44.032-3.072-66.56-5.12-23.552-2.048-48.128-3.072-71.68-5.12-26.624-2.048-52.224-4.096-78.848-5.12-23.552-2.048-47.104-3.072-70.656-5.12-2.048 0-4.096-1.024-6.144-2.048s-3.072-3.072-2.048-6.144c1.024-1.024 2.048-3.072 3.072-4.096 12.288-10.24 24.576-20.48 36.864-30.72 18.432-14.336 35.84-29.696 54.272-44.032 20.48-16.384 39.936-32.768 60.416-49.152 12.288-10.24 24.576-20.48 37.888-30.72 10.24-8.192 20.48-15.36 29.696-23.552 4.096-3.072 8.192-5.12 11.264-8.192 9.216-7.168 14.336-16.384 16.384-28.672 1.024-4.096 1.024-9.216 0-13.312-1.024-6.144-3.072-12.288-4.096-18.432-4.096-14.336-8.192-29.696-12.288-44.032-17.408-68.608-34.816-137.216-52.224-204.8-2.048-6.144-3.072-12.288-4.096-17.408z" />
<glyph unicode="&#xe916;" glyph-name="tt-flower-icon" d="M191.488 448c-4.096 2.048-7.168 4.096-10.24 5.12-21.504 10.24-43.008 22.528-61.44 38.912-22.528 19.456-40.96 43.008-50.176 72.704-10.24 33.792-9.216 67.584 2.048 101.376 13.312 36.864 36.864 67.584 69.632 91.136 19.456 13.312 40.96 20.48 64.512 22.528 25.6 3.072 51.2 0 76.8-9.216 20.48-7.168 38.912-18.432 56.32-32.768 4.096-3.072 8.192-6.144 13.312-10.24 0 4.096 0 8.192-1.024 12.288-1.024 16.384-2.048 32.768-1.024 49.152 3.072 56.32 27.648 101.376 75.776 132.096 19.456 13.312 41.984 19.456 65.536 22.528 26.624 3.072 52.224 1.024 77.824-6.144 37.888-11.264 65.536-35.84 83.968-70.656 10.24-18.432 16.384-38.912 19.456-60.416 2.048-18.432 2.048-37.888 3.072-56.32 0-7.168 0-13.312 0-20.48 0 0 0-1.024 0-2.048 1.024 1.024 2.048 1.024 2.048 1.024 16.384 9.216 31.744 19.456 48.128 28.672 17.408 10.24 36.864 17.408 57.344 20.48 33.792 5.12 65.536 0 95.232-18.432 31.744-20.48 56.32-47.104 70.656-81.92 10.24-25.6 14.336-51.2 13.312-78.848-1.024-16.384-3.072-31.744-9.216-47.104-9.216-22.528-23.552-40.96-40.96-56.32-18.432-16.384-38.912-28.672-61.44-38.912-5.12-2.048-10.24-5.12-15.36-7.168 1.024-1.024 2.048-1.024 2.048-1.024 13.312-8.192 27.648-15.36 40.96-23.552 19.456-12.288 36.864-26.624 52.224-45.056 17.408-21.504 27.648-46.080 30.72-72.704 6.144-45.056-6.144-86.016-31.744-122.88-20.48-29.696-48.128-51.2-83.968-61.44-31.744-9.216-62.464-7.168-93.184 4.096-13.312 5.12-26.624 12.288-38.912 19.456s-23.552 15.36-35.84 22.528c0 0-1.024 0-1.024 1.024 0-5.12 0-9.216 0-13.312 0-16.384 0-32.768-1.024-49.152-3.072-57.344-28.672-102.4-77.824-133.12-20.48-12.288-43.008-18.432-66.56-20.48-20.48-2.048-40.96-1.024-61.44 4.096-49.152 12.288-83.968 43.008-103.424 90.112-8.192 19.456-12.288 38.912-12.288 60.416-1.024 19.456-1.024 37.888-1.024 57.344 0 1.024 0 1.024 0 2.048-1.024-1.024-2.048-1.024-2.048-1.024-16.384-9.216-32.768-19.456-49.152-28.672s-34.816-15.36-53.248-18.432c-27.648-5.12-55.296-2.048-80.896 10.24-26.624 12.288-50.176 29.696-67.584 54.272-15.36 21.504-25.6 45.056-30.72 71.68-11.264 60.416 8.192 109.568 51.2 150.528 18.432 18.432 40.96 30.72 65.536 40.96-1.024-2.048 2.048-1.024 5.12 1.024zM590.848 335.36c1.024-1.024 1.024-1.024 2.048-2.048 5.12-6.144 9.216-12.288 14.336-18.432 18.432-23.552 35.84-48.128 56.32-69.632 18.432-19.456 38.912-37.888 61.44-52.224 19.456-12.288 40.96-22.528 64.512-24.576 20.48-2.048 40.96 1.024 58.368 11.264s30.72 24.576 41.984 41.984c17.408 25.6 23.552 54.272 17.408 84.992s-23.552 53.248-48.128 70.656c-23.552 16.384-50.176 27.648-78.848 34.816-37.888 10.24-77.824 16.384-116.736 20.48-5.12 1.024-10.24 1.024-15.36 2.048 0 9.216 0 17.408 0 25.6 0 0 1.024 0 1.024 0 16.384 2.048 31.744 4.096 48.128 7.168 25.6 4.096 51.2 8.192 75.776 14.336 29.696 7.168 57.344 18.432 82.944 34.816 13.312 8.192 25.6 17.408 33.792 30.72 19.456 28.672 24.576 60.416 15.36 93.184-5.12 20.48-16.384 36.864-29.696 52.224-24.576 28.672-56.32 39.936-93.184 32.768-25.6-5.12-48.128-16.384-68.608-30.72-25.6-18.432-48.128-40.96-68.608-64.512-18.432-21.504-34.816-44.032-51.2-67.584-1.024-1.024-1.024-2.048-2.048-2.048-8.192 4.096-16.384 8.192-23.552 12.288 2.048 6.144 5.12 11.264 7.168 16.384 13.312 30.72 25.6 61.44 34.816 94.208 8.192 30.72 13.312 61.44 13.312 93.184 0 18.432-3.072 35.84-10.24 52.224-12.288 29.696-33.792 51.2-65.536 59.392-17.408 5.12-35.84 5.12-54.272 3.072-14.336-2.048-27.648-6.144-39.936-13.312-19.456-11.264-32.768-28.672-41.984-49.152-11.264-26.624-13.312-54.272-10.24-81.92 3.072-25.6 8.192-51.2 16.384-76.8 9.216-29.696 20.48-58.368 33.792-87.040 2.048-3.072 3.072-7.168 5.12-11.264-8.192-4.096-16.384-8.192-24.576-13.312 0 0-1.024 1.024-1.024 1.024-18.432 23.552-36.864 47.104-55.296 70.656-15.36 19.456-32.768 37.888-52.224 53.248-23.552 19.456-50.176 32.768-79.872 39.936-15.36 4.096-31.744 5.12-47.104-1.024-24.576-8.192-44.032-23.552-59.392-44.032-12.288-16.384-19.456-34.816-21.504-54.272-2.048-15.36-2.048-29.696 2.048-44.032 6.144-22.528 19.456-40.96 37.888-55.296 17.408-13.312 36.864-23.552 57.344-31.744 37.888-14.336 76.8-22.528 116.736-27.648 15.36-2.048 29.696-4.096 45.056-6.144 2.048 0 3.072-1.024 3.072-3.072 0-6.144 0-12.288 0-18.432 0-3.072-2.048-5.12-5.12-6.144-1.024 0-2.048 0-3.072 0-24.576-2.048-48.128-5.12-72.704-9.216-30.72-5.12-60.416-13.312-89.088-24.576-21.504-8.192-41.984-19.456-58.368-35.84-29.696-28.672-40.96-63.488-31.744-104.448 6.144-27.648 21.504-50.176 41.984-68.608 10.24-9.216 21.504-15.36 34.816-19.456 22.528-6.144 44.032-4.096 65.536 3.072 22.528 7.168 41.984 19.456 60.416 33.792 23.552 17.408 44.032 38.912 61.44 61.44 16.384 21.504 32.768 43.008 48.128 64.512 1.024 1.024 1.024 1.024 2.048 2.048 8.192-4.096 15.36-9.216 23.552-13.312 0-1.024-1.024-2.048-1.024-3.072-11.264-25.6-22.528-51.2-31.744-77.824-12.288-34.816-21.504-70.656-21.504-107.52 0-19.456 1.024-39.936 6.144-58.368s13.312-34.816 28.672-47.104c20.48-16.384 44.032-24.576 70.656-25.6 21.504-1.024 41.984 4.096 61.44 14.336 18.432 9.216 32.768 22.528 41.984 40.96 7.168 13.312 11.264 28.672 12.288 43.008 3.072 23.552 2.048 47.104-2.048 69.632-4.096 23.552-9.216 46.080-18.432 67.584-10.24 27.648-21.504 54.272-31.744 81.92 0 1.024-1.024 2.048-1.024 3.072 7.168 5.12 14.336 9.216 21.504 13.312z" />
<glyph unicode="&#xe917;" glyph-name="tt-edit-icon" d="M1008.64 711.168c-1.024-1.024-2.048-1.024-2.048-2.048-239.616-239.616-479.232-479.232-718.848-717.824-1.024-1.024-2.048-2.048-2.048-3.072-77.824 77.824-155.648 155.648-232.448 232.448 239.616 240.64 481.28 482.304 722.944 724.992 1.024-1.024 1.024-3.072 2.048-4.096 75.776-75.776 151.552-151.552 227.328-227.328 1.024 0 2.048-1.024 3.072-3.072 0 1.024 0 1.024 0 0zM14.336 180.736c1.024-1.024 2.048-1.024 3.072-2.048 74.752-74.752 150.528-149.504 225.28-225.28 1.024-1.024 2.048-2.048 3.072-3.072-77.824 0-154.624 0-231.424 0 0 76.8 0 153.6 0 230.4z" />
<glyph unicode="&#xe918;" glyph-name="tt-delet-icon" d="M865.28 816.64c-50.176 0-100.352 0-150.528 0-2.048 0-4.096 0-7.168 0 0 3.072 0 5.12 0 7.168 0 31.744 0 62.464 0 94.208 0 14.336-5.12 23.552-18.432 28.672-118.784 0-236.544 0-355.328 0-13.312-5.12-18.432-15.36-17.408-29.696 1.024-30.72 0-62.464 0-93.184 0-2.048 0-4.096 0-7.168-3.072 0-5.12 0-7.168 0-29.696 0-59.392 0-90.112 0-21.504 0-43.008 0-64.512 0-14.336 0-24.576-9.216-24.576-24.576 0-18.432 0-35.84 0-54.272 0-11.264 8.192-20.48 18.432-21.504 3.072 0 6.144 0 9.216 0 234.496 0 470.016 0 704.512 0 12.288 0 22.528 4.096 27.648 15.36 0 23.552 0 46.080 0 69.632-2.048 11.264-12.288 15.36-24.576 15.36zM620.544 820.736c-71.68 0-144.384 0-216.064 0 0 13.312 0 26.624 0 40.96 71.68 0 144.384 0 216.064 0 0-13.312 0-26.624 0-40.96zM830.464 682.496c0 2.048 0 4.096 0 6.144-211.968 0-422.912 0-634.88 0 0-3.072 0-5.12 0-8.192 0-233.472 0-467.968 0-701.44 0-2.048 0-3.072 0-5.12 0-14.336 9.216-23.552 23.552-23.552 195.584 0 391.168 0 587.776 0 14.336 0 24.576 11.264 24.576 24.576-2.048 235.52-1.024 472.064-1.024 707.584zM380.928 85.504c-28.672 0-57.344 0-86.016 0 0 159.744 0 320.512 0 481.28 28.672 0 57.344 0 86.016 0 0-160.768 0-320.512 0-481.28zM555.008 85.504c-28.672 0-57.344 0-86.016 0 0 159.744 0 320.512 0 481.28 28.672 0 57.344 0 86.016 0 0-160.768 0-320.512 0-481.28zM729.088 85.504c-28.672 0-57.344 0-86.016 0 0 160.768 0 320.512 0 481.28 28.672 0 57.344 0 86.016 0 0-160.768 0-321.536 0-481.28z" />
<glyph unicode="&#xe919;" glyph-name="tt-search-icon" d="M637.952 228.864c-64.512-46.080-143.36-72.704-228.352-72.704-218.112 0-395.264 176.128-395.264 394.24s177.152 395.264 395.264 395.264 394.24-177.152 394.24-395.264c0-84.992-26.624-163.84-72.704-228.352l259.072-259.072c25.6-25.6 25.6-66.56 0-92.16l-1.024-1.024c-25.6-25.6-66.56-25.6-92.16 0l-259.072 259.072zM409.6 248.32c166.912 0 302.080 135.168 302.080 302.080s-135.168 302.080-302.080 302.080-302.080-135.168-302.080-302.080 135.168-302.080 302.080-302.080v0z" />
<glyph unicode="&#xe91a;" glyph-name="tt-cart-Icon" d="M257.024 623.104c0-2.048 0-3.072 0-4.096 0-15.36 0-31.744 0-47.104 0-37.888 24.576-69.632 60.416-79.872 47.104-13.312 96.256 16.384 104.448 64.512 1.024 5.12 1.024 11.264 1.024 16.384 0 15.36 0 30.72 0 46.080 0 1.024 0 3.072 0 4.096 60.416 0 119.808 0 179.2 0 0-1.024 0-3.072 0-4.096 0-15.36 0-31.744 0-47.104 0-35.84 25.6-73.728 67.584-81.92 48.128-9.216 90.112 23.552 97.28 67.584 1.024 5.12 1.024 10.24 1.024 15.36 0 15.36 0 30.72 0 45.056 0 1.024 0 3.072 0 5.12 2.048 0 3.072 0 4.096 0 18.432 0 36.864 0 54.272 0 53.248 0 106.496 0 159.744 0 2.048 0 4.096 0 6.144 0 9.216-2.048 14.336-9.216 12.288-18.432-2.048-8.192-4.096-16.384-6.144-24.576-14.336-60.416-29.696-120.832-44.032-181.248-12.288-51.2-25.6-103.424-37.888-154.624-17.408-69.632-33.792-139.264-51.2-207.872-2.048-7.168-4.096-14.336-5.12-22.528-5.12-21.504-18.432-36.864-35.84-49.152-10.24-7.168-21.504-11.264-33.792-13.312-3.072 0-7.168 0-10.24 0-179.2 0-358.4 0-537.6 0-34.816 0-69.632 25.6-78.848 57.344-3.072 11.264-6.144 23.552-9.216 34.816-14.336 57.344-27.648 113.664-41.984 171.008-13.312 59.392-28.672 119.808-43.008 180.224-14.336 56.32-28.672 113.664-41.984 169.984-3.072 12.288-6.144 24.576-9.216 36.864 0 1.024-1.024 2.048-1.024 4.096-1.024 10.24 6.144 17.408 15.36 17.408 1.024 0 2.048 0 3.072 0 71.68 0 143.36 0 215.040 0 2.048 0 4.096 0 6.144 0zM722.944 655.872c0-28.672 0-57.344 0-87.040 0-16.384-7.168-29.696-22.528-36.864-26.624-14.336-58.368 4.096-60.416 33.792 0 2.048 0 4.096 0 6.144 0 52.224 0 105.472 0 157.696 0 14.336-2.048 28.672-6.144 41.984-14.336 45.056-54.272 79.872-101.376 89.088-70.656 13.312-138.24-32.768-152.576-102.4-2.048-8.192-3.072-17.408-3.072-26.624 0-54.272 0-107.52 0-161.792 0-12.288-4.096-22.528-13.312-31.744-13.312-12.288-27.648-15.36-44.032-8.192-16.384 6.144-24.576 19.456-25.6 36.864 0 2.048 0 3.072 0 5.12 0 52.224 0 104.448 0 156.672 0 58.368 20.48 109.568 61.44 151.552 30.72 31.744 66.56 51.2 109.568 60.416 17.408 4.096 34.816 5.12 52.224 4.096 54.272-2.048 101.376-22.528 140.288-59.392 32.768-31.744 53.248-69.632 62.464-114.688 2.048-12.288 4.096-25.6 4.096-38.912-1.024-24.576-1.024-50.176-1.024-75.776z" />
</font>
</defs>
</svg>
