<?xml version="1.0" encoding="utf-8"?>
<!-- Generator: Adobe Illustrator 18.1.1, SVG Export Plug-In . SVG Version: 6.00 Build 0)  -->
<svg version="1.1" id="Layer_1" xmlns="http://www.w3.org/2000/svg" xmlns:xlink="http://www.w3.org/1999/xlink" x="0px" y="0px"
	 viewBox="0 0 561 82" enable-background="new 0 0 561 82" xml:space="preserve">
<g>
	<g>
		<defs>
			<path id="SVGID_1_" d="M433.5,0h122.1c3,0,5.5,2.4,5.5,5.5v71.1c0,3-2.4,5.5-5.5,5.5H433.5c-3,0-5.5-2.4-5.5-5.5V5.5
				C428,2.4,430.4,0,433.5,0z"/>
		</defs>
		<clipPath id="SVGID_2_">
			<use xlink:href="#SVGID_1_"  overflow="visible"/>
		</clipPath>
		<g clip-path="url(#SVGID_2_)">
			<defs>
				<rect id="SVGID_3_" x="404" y="-29" width="484" height="235"/>
			</defs>
			<clipPath id="SVGID_4_">
				<use xlink:href="#SVGID_3_"  overflow="visible"/>
			</clipPath>
			<rect x="423" y="-5" clip-path="url(#SVGID_4_)" fill="#0072CE" width="143" height="92"/>
		</g>
	</g>
	<g>
		<defs>
			<path id="SVGID_5_" d="M498.5,48.7c0,3.1-2.2,3.7-4.5,3.7h-3.2v3.7h-5l-3.2-3.7l-3.3,3.7h-10.2V45h10.4l3.2,3.6l3.3-3.6h8.2
				C496.2,45,498.5,45.6,498.5,48.7z M478,53.8h-6.3v-2.2h5.7v-2.3h-5.7v-2h6.5l2.8,3.2L478,53.8z M488.2,55.1l-4-4.5l4-4.4V55.1z
				 M494.1,50.1h-3.3v-2.8h3.4c0.9,0,1.6,0.4,1.6,1.4C495.7,49.6,495.1,50.1,494.1,50.1z M511.5,45h8.6v2.3h-6v2h5.9v2.3h-5.9v2.2
				l6,0v2.3h-8.6V45z M508.3,50.9c0.6,0.2,1,0.6,1.3,0.9c0.4,0.5,0.4,1,0.4,2v2.2h-2.6v-1.4c0-0.7,0.1-1.6-0.4-2.2
				c-0.4-0.4-1-0.5-1.9-0.5h-2.8v4h-2.6V45h6c1.3,0,2.3,0.1,3.1,0.5c0.8,0.5,1.3,1.2,1.3,2.5C510.1,49.8,508.9,50.7,508.3,50.9z
				 M506.7,49.6c-0.3,0.2-0.8,0.2-1.3,0.2h-3.1v-2.5h3.2c0.5,0,0.9,0,1.2,0.2c0.3,0.2,0.5,0.5,0.5,1C507.2,49,507,49.4,506.7,49.6z
				 M530,50.2c0.5,0.5,0.8,1.2,0.8,2.3c0,2.4-1.5,3.5-4.1,3.5h-5v-2.4h5c0.5,0,0.8-0.1,1.1-0.3c0.2-0.2,0.3-0.4,0.3-0.7
				c0-0.3-0.1-0.6-0.3-0.7c-0.2-0.2-0.5-0.2-0.9-0.2c-2.4-0.1-5.4,0.1-5.4-3.4c0-1.6,1-3.3,3.7-3.3h5.2v2.4h-4.7c-0.5,0-0.8,0-1,0.2
				c-0.3,0.2-0.4,0.4-0.4,0.8c0,0.4,0.2,0.7,0.6,0.8c0.3,0.1,0.6,0.1,1,0.1l1.4,0C528.4,49.4,529.4,49.6,530,50.2z M540.3,54.7
				c-0.6,0.9-1.8,1.4-3.5,1.4h-5v-2.4h5c0.5,0,0.8-0.1,1-0.3c0.2-0.2,0.3-0.4,0.3-0.7c0-0.3-0.1-0.6-0.3-0.7
				c-0.2-0.2-0.5-0.2-0.9-0.2c-2.4-0.1-5.4,0.1-5.4-3.4c0-1.6,1-3.3,3.7-3.3h5.1v-2.2h-4.8c-1.4,0-2.5,0.4-3.2,0.9v-0.9h-7.1
				c-1.1,0-2.5,0.3-3.1,0.9v-0.9h-12.6v0.9c-1-0.7-2.7-0.9-3.5-0.9h-8.3v0.9c-0.8-0.8-2.6-0.9-3.6-0.9h-9.3l-2.1,2.4l-2-2.4h-13.9
				v15.4h13.6l2.2-2.4l2.1,2.4l8.4,0v-3.6h0.8c1.1,0,2.4,0,3.6-0.5v4.2h6.9v-4h0.3c0.4,0,0.5,0,0.5,0.5v3.6h21.1
				c1.3,0,2.7-0.4,3.5-1v1h6.7c1.4,0,2.7-0.2,3.8-0.7V54.7z M540.3,47.4h-4.7c-0.5,0-0.8,0-1,0.2c-0.3,0.2-0.4,0.4-0.4,0.8
				c0,0.4,0.2,0.7,0.6,0.8c0.3,0.1,0.6,0.1,1,0.1l1.4,0c1.4,0,2.4,0.3,2.9,0.9c0.1,0.1,0.2,0.2,0.2,0.3V47.4z"/>
		</defs>
		<clipPath id="SVGID_6_">
			<use xlink:href="#SVGID_5_"  overflow="visible"/>
		</clipPath>
		<g clip-path="url(#SVGID_6_)">
			<defs>
				<rect id="SVGID_7_" x="404" y="-29" width="484" height="235"/>
			</defs>
			<clipPath id="SVGID_8_">
				<use xlink:href="#SVGID_7_"  overflow="visible"/>
			</clipPath>
			<rect x="461.8" y="37.8" clip-path="url(#SVGID_8_)" fill="#FFFFFF" width="83.5" height="25.4"/>
		</g>
	</g>
	<g>
		<defs>
			<path id="SVGID_9_" d="M448.5,39.2h4.4l1-2.5h2.2l1,2.5h8.7v-1.9l0.8,1.9h4.5l0.8-1.9v1.9h21.5l0-4h0.4c0.3,0,0.4,0,0.4,0.5v3.5
				h11.1v-0.9c0.9,0.5,2.3,0.9,4.1,0.9h4.7l1-2.5h2.2l1,2.5h9v-2.3l1.4,2.3h7.2V23.8h-7.2v1.8l-1-1.8h-7.3v1.8l-0.9-1.8h-9.9
				c-1.7,0-3.1,0.2-4.3,0.9v-0.9h-6.9v0.9c-0.8-0.7-1.8-0.9-2.9-0.9h-25l-1.7,4l-1.7-4h-7.9v1.8l-0.9-1.8h-6.7l-3.1,7.3L448.5,39.2
				L448.5,39.2z M533.7,37.1H530l-4.9-8.3v8.3h-5.3l-1-2.5h-5.4l-1,2.5h-3c-1.3,0-2.8-0.3-3.7-1.2c-0.9-0.9-1.4-2.2-1.4-4.2
				c0-1.6,0.3-3.1,1.4-4.3c0.8-0.9,2.1-1.3,3.9-1.3h2.5v2.4h-2.4c-0.9,0-1.5,0.1-2,0.7c-0.4,0.5-0.7,1.3-0.7,2.5
				c0,1.2,0.2,2,0.7,2.6c0.4,0.4,1.1,0.6,1.8,0.6h1.2l3.6-8.7h3.9l4.4,10.5V26h3.9l4.5,7.7V26h2.6V37.1z M503.2,37.1h-2.6V26h2.6
				V37.1z M499,29c0,1.8-1.1,2.7-1.8,2.9c0.6,0.2,1,0.6,1.3,0.9c0.4,0.5,0.4,1,0.4,2v2.2h-2.6l0-1.4c0-0.7,0.1-1.6-0.4-2.2
				c-0.4-0.4-1-0.5-1.9-0.5h-2.8v4h-2.6V26h5.9c1.3,0,2.3,0,3.1,0.5C498.6,27,499,27.7,499,29z M486.9,37.1h-8.6V26h8.6v2.3h-6v2
				h5.9v2.3h-5.9v2.2h6V37.1z M476.4,37.1h-2.6l0-8.7l-3.7,8.7h-2.3l-3.7-8.7v8.7h-5.2l-1-2.5h-5.4l-1,2.5h-2.8l4.6-11.1h3.8
				l4.4,10.5V26h4.2l3.4,7.5l3.1-7.5h4.3L476.4,37.1L476.4,37.1z M518,32.3l-1.8-4.4l-1.8,4.4H518z M495.7,30.5
				c-0.4,0.2-0.8,0.2-1.3,0.2h-3.1v-2.5h3.2c0.4,0,0.9,0,1.2,0.2c0.3,0.2,0.5,0.5,0.5,1C496.2,30,496,30.4,495.7,30.5z M456.8,32.3
				l-1.8-4.4l-1.8,4.4H456.8z"/>
		</defs>
		<clipPath id="SVGID_10_">
			<use xlink:href="#SVGID_9_"  overflow="visible"/>
		</clipPath>
		<g clip-path="url(#SVGID_10_)">
			<defs>
				<rect id="SVGID_11_" x="404" y="-29" width="484" height="235"/>
			</defs>
			<clipPath id="SVGID_12_">
				<use xlink:href="#SVGID_11_"  overflow="visible"/>
			</clipPath>
			<rect x="443.5" y="18.8" clip-path="url(#SVGID_12_)" fill="#FFFFFF" width="97.5" height="25.4"/>
		</g>
	</g>
</g>
<g>
	<g>
		<defs>
			<path id="SVGID_13_" d="M0,4c0-2.2,1.8-4,4-4h125c2.2,0,4,1.8,4,4v74c0,2.2-1.8,4-4,4H4c-2.2,0-4-1.8-4-4V4z"/>
		</defs>
		<clipPath id="SVGID_14_">
			<use xlink:href="#SVGID_13_"  overflow="visible"/>
		</clipPath>
		<g clip-path="url(#SVGID_14_)">
			<defs>
				<rect id="SVGID_15_" x="-26" y="-118" width="484" height="235"/>
			</defs>
			<clipPath id="SVGID_16_">
				<use xlink:href="#SVGID_15_"  overflow="visible"/>
			</clipPath>
			<rect x="-5" y="-5" clip-path="url(#SVGID_16_)" fill="#26337A" width="143" height="92"/>
		</g>
	</g>
	<g>
		<defs>
			<polyline id="SVGID_17_" points="55.2,54 59.3,28 65.8,28 61.7,54 55.2,54 			"/>
		</defs>
		<clipPath id="SVGID_18_">
			<use xlink:href="#SVGID_17_"  overflow="visible"/>
		</clipPath>
		<g clip-path="url(#SVGID_18_)">
			<defs>
				<rect id="SVGID_19_" x="-26" y="-118" width="484" height="235"/>
			</defs>
			<clipPath id="SVGID_20_">
				<use xlink:href="#SVGID_19_"  overflow="visible"/>
			</clipPath>
			<rect x="50.2" y="23" clip-path="url(#SVGID_20_)" fill="#FFFFFE" width="20.6" height="36.1"/>
		</g>
	</g>
	<g>
		<defs>
			<path id="SVGID_21_" d="M85.4,28.6c-1.3-0.5-3.3-1.1-5.9-1.1c-6.5,0-11,3.5-11,8.6c0,3.7,3.2,5.8,5.7,7.1
				c2.5,1.3,3.4,2.1,3.4,3.2c0,1.7-2,2.5-3.9,2.5c-2.6,0-4-0.4-6.2-1.4l-0.8-0.4L65.8,53c1.5,0.7,4.3,1.4,7.3,1.4
				c6.9,0,11.3-3.5,11.4-8.9c0-3-1.7-5.2-5.5-7.1c-2.3-1.2-3.7-2-3.7-3.2c0-1.1,1.2-2.2,3.7-2.2c2.1,0,3.7,0.5,4.9,1l0.6,0.3
				L85.4,28.6"/>
		</defs>
		<clipPath id="SVGID_22_">
			<use xlink:href="#SVGID_21_"  overflow="visible"/>
		</clipPath>
		<g clip-path="url(#SVGID_22_)">
			<defs>
				<rect id="SVGID_23_" x="-26" y="-118" width="484" height="235"/>
			</defs>
			<clipPath id="SVGID_24_">
				<use xlink:href="#SVGID_23_"  overflow="visible"/>
			</clipPath>
			<rect x="60.8" y="22.5" clip-path="url(#SVGID_24_)" fill="#FFFFFE" width="29.6" height="36.9"/>
		</g>
	</g>
	<g>
		<defs>
			<path id="SVGID_25_" d="M102.2,28h-5.1c-1.6,0-2.7,0.5-3.4,2.2L84,54.1h6.9c0,0,1.1-3.2,1.4-3.9c0.7,0,7.4,0,8.4,0
				c0.2,0.9,0.8,3.9,0.8,3.9h6.1L102.2,28z M94.1,44.8c0.5-1.5,2.6-7.3,2.6-7.3c0,0.1,0.5-1.5,0.9-2.5l0.4,2.2c0,0,1.3,6.2,1.5,7.5
				H94.1z"/>
		</defs>
		<clipPath id="SVGID_26_">
			<use xlink:href="#SVGID_25_"  overflow="visible"/>
		</clipPath>
		<g clip-path="url(#SVGID_26_)">
			<defs>
				<rect id="SVGID_27_" x="-26" y="-118" width="484" height="235"/>
			</defs>
			<clipPath id="SVGID_28_">
				<use xlink:href="#SVGID_27_"  overflow="visible"/>
			</clipPath>
			<rect x="79" y="23" clip-path="url(#SVGID_28_)" fill="#FFFFFE" width="33.5" height="36.1"/>
		</g>
	</g>
	<g>
		<defs>
			<path id="SVGID_29_" d="M49.7,28l-6.4,17.8l-0.7-3.6c-1.2-4.2-4.9-8.7-9.1-10.9L39.4,54l6.9,0l10.3-26H49.7"/>
		</defs>
		<clipPath id="SVGID_30_">
			<use xlink:href="#SVGID_29_"  overflow="visible"/>
		</clipPath>
		<g clip-path="url(#SVGID_30_)">
			<defs>
				<rect id="SVGID_31_" x="-26" y="-118" width="484" height="235"/>
			</defs>
			<clipPath id="SVGID_32_">
				<use xlink:href="#SVGID_31_"  overflow="visible"/>
			</clipPath>
			<rect x="28.6" y="23" clip-path="url(#SVGID_32_)" fill="#FFFFFE" width="33.1" height="36"/>
		</g>
	</g>
	<g>
		<defs>
			<path id="SVGID_33_" d="M37.4,28H26.8l-0.1,0.5c8.2,2.2,13.6,7.4,15.9,13.6l-2.3-12C39.9,28.5,38.8,28,37.4,28"/>
		</defs>
		<clipPath id="SVGID_34_">
			<use xlink:href="#SVGID_33_"  overflow="visible"/>
		</clipPath>
		<g clip-path="url(#SVGID_34_)">
			<defs>
				<rect id="SVGID_35_" x="-26" y="-118" width="484" height="235"/>
			</defs>
			<clipPath id="SVGID_36_">
				<use xlink:href="#SVGID_35_"  overflow="visible"/>
			</clipPath>
			<rect x="21.7" y="23" clip-path="url(#SVGID_36_)" fill="#EC982D" width="25.9" height="24.2"/>
		</g>
	</g>
</g>
<g>
	<g>
		<defs>
			<path id="SVGID_37_" d="M142.7,4c0-2.2,1.8-4,4-4h125c2.2,0,4,1.8,4,4v74c0,2.2-1.8,4-4,4h-125c-2.2,0-4-1.8-4-4V4z"/>
		</defs>
		<clipPath id="SVGID_38_">
			<use xlink:href="#SVGID_37_"  overflow="visible"/>
		</clipPath>
		<g clip-path="url(#SVGID_38_)">
			<defs>
				<rect id="SVGID_39_" x="-166.3" y="-28" width="484" height="235"/>
			</defs>
			<clipPath id="SVGID_40_">
				<use xlink:href="#SVGID_39_"  overflow="visible"/>
			</clipPath>
			<rect x="137.7" y="-5" clip-path="url(#SVGID_40_)" fill="#000066" width="143" height="92"/>
		</g>
	</g>
	<g>
		<defs>
			<path id="SVGID_41_" d="M217.3,41.7c0,14.7-11.6,26.7-26,26.7c-14.3,0-26-11.9-26-26.7c0-14.7,11.6-26.7,26-26.7
				C205.7,15,217.3,26.9,217.3,41.7"/>
		</defs>
		<clipPath id="SVGID_42_">
			<use xlink:href="#SVGID_41_"  overflow="visible"/>
		</clipPath>
		<g clip-path="url(#SVGID_42_)">
			<defs>
				<rect id="SVGID_43_" x="-166.3" y="-28" width="484" height="235"/>
			</defs>
			<clipPath id="SVGID_44_">
				<use xlink:href="#SVGID_43_"  overflow="visible"/>
			</clipPath>
			<rect x="160.4" y="10" clip-path="url(#SVGID_44_)" fill="#CC0000" width="61.9" height="63.3"/>
		</g>
	</g>
	<g>
		<defs>
			<path id="SVGID_45_" d="M226.2,15c-6.7,0-12.8,2.6-17.4,6.9c-0.9,0.9-1.8,1.8-2.6,2.8h5.2c0.7,0.9,1.4,1.8,2,2.8h-9.2
				c-0.6,0.9-1.1,1.8-1.5,2.8h12.2c0.4,0.9,0.8,1.9,1.1,2.8h-14.4c-0.3,0.9-0.6,1.9-0.8,2.8h15.9c0.4,1.8,0.6,3.7,0.6,5.6
				c0,3-0.5,5.8-1.3,8.5h-14.4c0.3,1,0.7,1.9,1.1,2.8h12.2c-0.4,1-0.9,1.9-1.5,2.8h-9.2c0.6,1,1.3,1.9,2,2.8h5.2
				c-0.8,1-1.7,2-2.6,2.8c4.6,4.3,10.7,6.9,17.4,6.9c14.3,0,26-11.9,26-26.7C252.2,26.9,240.5,15,226.2,15"/>
		</defs>
		<clipPath id="SVGID_46_">
			<use xlink:href="#SVGID_45_"  overflow="visible"/>
		</clipPath>
		<g clip-path="url(#SVGID_46_)">
			<defs>
				<rect id="SVGID_47_" x="-166.3" y="-28" width="484" height="235"/>
			</defs>
			<clipPath id="SVGID_48_">
				<use xlink:href="#SVGID_47_"  overflow="visible"/>
			</clipPath>
			<rect x="195.8" y="10" clip-path="url(#SVGID_48_)" fill="#FF9900" width="61.3" height="63.3"/>
		</g>
	</g>
	<g>
		<defs>
			<path id="SVGID_49_" d="M187.4,49.5H185l0.1-1.1c-0.7,0.9-1.7,1.3-3,1.3c-1.5,0-2.6-1.2-2.6-3c0-2.7,1.8-4.2,4.9-4.2
				c0.3,0,0.7,0,1.1,0.1c0.1-0.4,0.1-0.5,0.1-0.7c0-0.7-0.5-1-1.8-1c-1.4,0-2.5,0.3-3,0.5c0-0.2,0.4-2.5,0.4-2.5
				c1.4-0.4,2.3-0.6,3.4-0.6c2.4,0,3.7,1.1,3.7,3.2c0,0.6-0.1,1.3-0.2,2.2C187.9,45.2,187.4,48.7,187.4,49.5z M185.3,44.6
				c-0.3,0-0.4,0-0.6,0c-1.6,0-2.4,0.6-2.4,1.7c0,0.7,0.4,1.1,1,1.1C184.4,47.3,185.3,46.2,185.3,44.6z"/>
		</defs>
		<clipPath id="SVGID_50_">
			<use xlink:href="#SVGID_49_"  overflow="visible"/>
		</clipPath>
		<g clip-path="url(#SVGID_50_)">
			<defs>
				<rect id="SVGID_51_" x="-166.3" y="-28" width="484" height="235"/>
			</defs>
			<clipPath id="SVGID_52_">
				<use xlink:href="#SVGID_51_"  overflow="visible"/>
			</clipPath>
			<rect x="174.5" y="33.2" clip-path="url(#SVGID_52_)" fill="#000066" width="18.9" height="21.4"/>
		</g>
	</g>
	<g>
		<defs>
			<polyline id="SVGID_53_" points="178.4,49.5 175.5,49.5 177.2,39.1 173.6,49.5 171.6,49.5 171.4,39.1 169.7,49.5 167.1,49.5 
				169.3,36 173.3,36 173.6,43.5 176,36 180.5,36 178.4,49.5 			"/>
		</defs>
		<clipPath id="SVGID_54_">
			<use xlink:href="#SVGID_53_"  overflow="visible"/>
		</clipPath>
		<g clip-path="url(#SVGID_54_)">
			<defs>
				<rect id="SVGID_55_" x="-166.3" y="-28" width="484" height="235"/>
			</defs>
			<clipPath id="SVGID_56_">
				<use xlink:href="#SVGID_55_"  overflow="visible"/>
			</clipPath>
			<rect x="162.1" y="31" clip-path="url(#SVGID_56_)" fill="#000066" width="23.5" height="23.5"/>
		</g>
	</g>
	<g>
		<defs>
			<path id="SVGID_57_" d="M231.7,49.5h-2.3l0.1-1.1c-0.7,0.9-1.7,1.3-3,1.3c-1.5,0-2.6-1.2-2.6-3c0-2.7,1.8-4.2,4.9-4.2
				c0.3,0,0.7,0,1.1,0.1c0.1-0.4,0.1-0.5,0.1-0.7c0-0.7-0.5-1-1.8-1c-1.4,0-2.5,0.3-3,0.5c0-0.2,0.4-2.5,0.4-2.5
				c1.4-0.4,2.3-0.6,3.4-0.6c2.4,0,3.7,1.1,3.7,3.2c0,0.6-0.1,1.3-0.2,2.2C232.3,45.2,231.8,48.7,231.7,49.5z M229.7,44.6
				c-0.3,0-0.4,0-0.6,0c-1.6,0-2.4,0.6-2.4,1.7c0,0.7,0.4,1.1,1,1.1C228.8,47.3,229.6,46.2,229.7,44.6z"/>
		</defs>
		<clipPath id="SVGID_58_">
			<use xlink:href="#SVGID_57_"  overflow="visible"/>
		</clipPath>
		<g clip-path="url(#SVGID_58_)">
			<defs>
				<rect id="SVGID_59_" x="-166.3" y="-28" width="484" height="235"/>
			</defs>
			<clipPath id="SVGID_60_">
				<use xlink:href="#SVGID_59_"  overflow="visible"/>
			</clipPath>
			<rect x="218.9" y="33.2" clip-path="url(#SVGID_60_)" fill="#000066" width="18.9" height="21.4"/>
		</g>
	</g>
	<g>
		<defs>
			<path id="SVGID_61_" d="M199.9,49.3c-0.8,0.2-1.4,0.4-2,0.4c-1.4,0-2.2-0.9-2.2-2.4c0-0.5,0.2-1.8,0.4-2.9c0.2-1,1.2-7.5,1.2-7.5
				h2.8l-0.3,1.7h1.7l-0.4,2.6h-1.7c-0.3,2.1-0.8,4.7-0.8,5c0,0.6,0.3,0.8,1,0.8c0.3,0,0.6,0,0.8-0.1L199.9,49.3"/>
		</defs>
		<clipPath id="SVGID_62_">
			<use xlink:href="#SVGID_61_"  overflow="visible"/>
		</clipPath>
		<g clip-path="url(#SVGID_62_)">
			<defs>
				<rect id="SVGID_63_" x="-166.3" y="-28" width="484" height="235"/>
			</defs>
			<clipPath id="SVGID_64_">
				<use xlink:href="#SVGID_63_"  overflow="visible"/>
			</clipPath>
			<rect x="190.6" y="31.8" clip-path="url(#SVGID_64_)" fill="#000066" width="15.8" height="22.9"/>
		</g>
	</g>
	<g>
		<defs>
			<path id="SVGID_65_" d="M206.9,42.7c0-0.2,0.3-2-1.3-2c-0.9,0-1.5,0.7-1.8,2H206.9z M208.5,49.2c-1,0.3-1.9,0.4-2.9,0.4
				c-3.1,0-4.8-1.7-4.8-4.9c0-3.8,2.1-6.5,4.9-6.5c2.3,0,3.8,1.6,3.8,4c0,0.8-0.1,1.6-0.3,2.7h-5.6c-0.2,1.6,0.8,2.3,2.4,2.3
				c1,0,1.9-0.2,2.9-0.7L208.5,49.2z"/>
		</defs>
		<clipPath id="SVGID_66_">
			<use xlink:href="#SVGID_65_"  overflow="visible"/>
		</clipPath>
		<g clip-path="url(#SVGID_66_)">
			<defs>
				<rect id="SVGID_67_" x="-166.3" y="-28" width="484" height="235"/>
			</defs>
			<clipPath id="SVGID_68_">
				<use xlink:href="#SVGID_67_"  overflow="visible"/>
			</clipPath>
			<rect x="195.8" y="33.2" clip-path="url(#SVGID_68_)" fill="#000066" width="18.7" height="21.4"/>
		</g>
	</g>
	<g>
		<defs>
			<path id="SVGID_69_" d="M189,42c0,1.4,0.7,2.4,2.1,3.1c1.1,0.6,1.3,0.7,1.3,1.2c0,0.7-0.5,1-1.6,1c-0.8,0-1.6-0.1-2.5-0.4
				c0,0-0.4,2.4-0.4,2.5c0.6,0.1,1.2,0.3,2.9,0.3c3,0,4.3-1.2,4.3-3.7c0-1.5-0.6-2.4-2-3.1c-1.2-0.6-1.3-0.7-1.3-1.2
				c0-0.6,0.5-0.9,1.4-0.9c0.6,0,1.3,0.1,2,0.2l0.4-2.6c-0.7-0.1-1.8-0.2-2.5-0.2C190.1,38.2,189,39.9,189,42"/>
		</defs>
		<clipPath id="SVGID_70_">
			<use xlink:href="#SVGID_69_"  overflow="visible"/>
		</clipPath>
		<g clip-path="url(#SVGID_70_)">
			<defs>
				<rect id="SVGID_71_" x="-166.3" y="-28" width="484" height="235"/>
			</defs>
			<clipPath id="SVGID_72_">
				<use xlink:href="#SVGID_71_"  overflow="visible"/>
			</clipPath>
			<rect x="183" y="33.2" clip-path="url(#SVGID_72_)" fill="#000066" width="17.8" height="21.4"/>
		</g>
	</g>
	<g>
		<defs>
			<path id="SVGID_73_" d="M222.2,38.5c0.8,0,1.5,0.2,2.5,0.7l0.5-2.9c-0.4-0.2-1.9-1.1-3.1-1.1c-1.9,0-3.5,1-4.6,2.5
				c-1.6-0.6-2.3,0.6-3.1,1.7l-0.7,0.2c0.1-0.4,0.1-0.7,0.1-1.1h-2.6c-0.4,3.4-1,6.9-1.5,10.3l-0.1,0.7h2.8c0.5-3.1,0.7-5.2,0.9-6.5
				l1.1-0.6c0.2-0.6,0.7-0.8,1.7-0.8c-0.1,0.7-0.2,1.5-0.2,2.3c0,3.6,1.9,5.8,4.9,5.8c0.8,0,1.5-0.1,2.5-0.4l0.5-3.1
				c-0.9,0.5-1.7,0.7-2.4,0.7c-1.6,0-2.6-1.2-2.6-3.3C218.6,40.6,220.1,38.5,222.2,38.5"/>
		</defs>
		<clipPath id="SVGID_74_">
			<use xlink:href="#SVGID_73_"  overflow="visible"/>
		</clipPath>
		<g clip-path="url(#SVGID_74_)">
			<defs>
				<rect id="SVGID_75_" x="-166.3" y="-28" width="484" height="235"/>
			</defs>
			<clipPath id="SVGID_76_">
				<use xlink:href="#SVGID_75_"  overflow="visible"/>
			</clipPath>
			<rect x="204.5" y="30.2" clip-path="url(#SVGID_76_)" fill="#000066" width="25.7" height="24.5"/>
		</g>
	</g>
	<g>
		<defs>
			<path id="SVGID_77_" d="M242.5,46.9c-1,0-1.4-0.7-1.4-2.2c0-2.2,0.9-3.7,2.2-3.7c1,0,1.5,0.8,1.5,2.2
				C244.7,45.4,243.8,46.9,242.5,46.9z M246,36l-0.6,3.9c-0.8-1-1.6-1.8-2.7-1.8c-1.4,0-2.7,1.1-3.6,2.7c-1.2-0.3-2.4-0.7-2.4-0.7
				l0,0c0.1-0.9,0.1-1.5,0.1-1.7h-2.6c-0.4,3.4-1,6.9-1.5,10.3l-0.1,0.7h2.8c0.4-2.5,0.7-4.6,0.9-6.3c1-0.9,1.4-1.7,2.4-1.6
				c-0.4,1.1-0.7,2.3-0.7,3.6c0,2.7,1.4,4.6,3.4,4.6c1,0,1.8-0.4,2.6-1.2l-0.1,1h2.7l2.1-13.5H246z"/>
		</defs>
		<clipPath id="SVGID_78_">
			<use xlink:href="#SVGID_77_"  overflow="visible"/>
		</clipPath>
		<g clip-path="url(#SVGID_78_)">
			<defs>
				<rect id="SVGID_79_" x="-166.3" y="-28" width="484" height="235"/>
			</defs>
			<clipPath id="SVGID_80_">
				<use xlink:href="#SVGID_79_"  overflow="visible"/>
			</clipPath>
			<rect x="227.7" y="31" clip-path="url(#SVGID_80_)" fill="#000066" width="26.1" height="23.7"/>
		</g>
	</g>
	<g>
		<defs>
			<polyline id="SVGID_81_" points="179.2,48.7 176.4,48.7 178,38.3 174.4,48.7 172.4,48.7 172.2,38.3 170.5,48.7 167.9,48.7 
				170.1,35.2 174.1,35.2 174.2,43.5 177,35.2 181.4,35.2 179.2,48.7 			"/>
		</defs>
		<clipPath id="SVGID_82_">
			<use xlink:href="#SVGID_81_"  overflow="visible"/>
		</clipPath>
		<g clip-path="url(#SVGID_82_)">
			<defs>
				<rect id="SVGID_83_" x="-166.3" y="-28" width="484" height="235"/>
			</defs>
			<clipPath id="SVGID_84_">
				<use xlink:href="#SVGID_83_"  overflow="visible"/>
			</clipPath>
			<rect x="162.9" y="30.2" clip-path="url(#SVGID_84_)" fill="#FFFFFF" width="23.5" height="23.5"/>
		</g>
	</g>
	<g>
		<defs>
			<path id="SVGID_85_" d="M188.2,48.7h-2.3l0.1-1.1c-0.7,0.9-1.7,1.3-3,1.3c-1.5,0-2.6-1.2-2.6-3c0-2.7,1.8-4.2,4.9-4.2
				c0.3,0,0.7,0,1.1,0.1c0.1-0.4,0.1-0.5,0.1-0.7c0-0.7-0.5-1-1.8-1c-1.4,0-2.5,0.3-3,0.5c0-0.2,0.4-2.5,0.4-2.5
				c1.4-0.4,2.3-0.6,3.4-0.6c2.4,0,3.7,1.1,3.7,3.2c0,0.6-0.1,1.3-0.2,2.2C188.8,44.4,188.2,47.9,188.2,48.7z M186.1,43.8
				c-0.3,0-0.4,0-0.6,0c-1.6,0-2.4,0.6-2.4,1.7c0,0.7,0.4,1.1,1,1.1C185.2,46.5,186.1,45.4,186.1,43.8z"/>
		</defs>
		<clipPath id="SVGID_86_">
			<use xlink:href="#SVGID_85_"  overflow="visible"/>
		</clipPath>
		<g clip-path="url(#SVGID_86_)">
			<defs>
				<rect id="SVGID_87_" x="-166.3" y="-28" width="484" height="235"/>
			</defs>
			<clipPath id="SVGID_88_">
				<use xlink:href="#SVGID_87_"  overflow="visible"/>
			</clipPath>
			<rect x="175.4" y="32.4" clip-path="url(#SVGID_88_)" fill="#FFFFFF" width="18.9" height="21.4"/>
		</g>
	</g>
	<g>
		<defs>
			<path id="SVGID_89_" d="M226,35.5l-0.5,2.9c-1-0.5-1.7-0.7-2.5-0.7c-2.1,0-3.6,2.1-3.6,5.1c0,2.1,1,3.3,2.6,3.3
				c0.7,0,1.5-0.2,2.4-0.7l-0.5,3.1c-1,0.3-1.7,0.4-2.5,0.4c-3,0-4.9-2.2-4.9-5.8c0-4.8,2.6-8.2,6.3-8.2
				C224.1,34.8,225.5,35.4,226,35.5"/>
		</defs>
		<clipPath id="SVGID_90_">
			<use xlink:href="#SVGID_89_"  overflow="visible"/>
		</clipPath>
		<g clip-path="url(#SVGID_90_)">
			<defs>
				<rect id="SVGID_91_" x="-166.3" y="-28" width="484" height="235"/>
			</defs>
			<clipPath id="SVGID_92_">
				<use xlink:href="#SVGID_91_"  overflow="visible"/>
			</clipPath>
			<rect x="211.5" y="29.8" clip-path="url(#SVGID_92_)" fill="#FFFFFF" width="19.4" height="24.1"/>
		</g>
	</g>
	<g>
		<defs>
			<path id="SVGID_93_" d="M232.6,48.7h-2.3l0.1-1.1c-0.7,0.9-1.7,1.3-3,1.3c-1.5,0-2.6-1.2-2.6-3c0-2.7,1.8-4.2,4.9-4.2
				c0.3,0,0.7,0,1.1,0.1c0.1-0.4,0.1-0.5,0.1-0.7c0-0.7-0.5-1-1.8-1c-1.4,0-2.5,0.3-3,0.5c0-0.2,0.4-2.5,0.4-2.5
				c1.4-0.4,2.3-0.6,3.4-0.6c2.4,0,3.7,1.1,3.7,3.2c0,0.6-0.1,1.3-0.2,2.2C233.1,44.4,232.6,47.9,232.6,48.7z M230.5,43.8
				c-0.3,0-0.4,0-0.6,0c-1.6,0-2.4,0.6-2.4,1.7c0,0.7,0.4,1.1,1,1.1C229.6,46.5,230.5,45.4,230.5,43.8z"/>
		</defs>
		<clipPath id="SVGID_94_">
			<use xlink:href="#SVGID_93_"  overflow="visible"/>
		</clipPath>
		<g clip-path="url(#SVGID_94_)">
			<defs>
				<rect id="SVGID_95_" x="-166.3" y="-28" width="484" height="235"/>
			</defs>
			<clipPath id="SVGID_96_">
				<use xlink:href="#SVGID_95_"  overflow="visible"/>
			</clipPath>
			<rect x="219.7" y="32.4" clip-path="url(#SVGID_96_)" fill="#FFFFFF" width="18.9" height="21.4"/>
		</g>
	</g>
	<g>
		<defs>
			<path id="SVGID_97_" d="M200.7,48.5c-0.8,0.2-1.4,0.4-2,0.4c-1.4,0-2.2-0.9-2.2-2.4c0-0.5,0.2-1.8,0.4-2.9c0.2-1,1.2-7.5,1.2-7.5
				h2.8l-0.3,1.7h1.4l-0.4,2.6h-1.4c-0.3,2.1-0.8,4.7-0.8,5c0,0.6,0.3,0.8,1,0.8c0.3,0,0.6,0,0.8-0.1L200.7,48.5"/>
		</defs>
		<clipPath id="SVGID_98_">
			<use xlink:href="#SVGID_97_"  overflow="visible"/>
		</clipPath>
		<g clip-path="url(#SVGID_98_)">
			<defs>
				<rect id="SVGID_99_" x="-166.3" y="-28" width="484" height="235"/>
			</defs>
			<clipPath id="SVGID_100_">
				<use xlink:href="#SVGID_99_"  overflow="visible"/>
			</clipPath>
			<rect x="191.4" y="31" clip-path="url(#SVGID_100_)" fill="#FFFFFF" width="15.5" height="22.9"/>
		</g>
	</g>
	<g>
		<defs>
			<path id="SVGID_101_" d="M207.7,41.9c0-0.2,0.3-2-1.3-2c-0.9,0-1.5,0.7-1.8,2H207.7z M209.3,48.4c-1,0.3-1.9,0.4-2.9,0.4
				c-3.1,0-4.8-1.7-4.8-4.9c0-3.8,2.1-6.5,4.9-6.5c2.3,0,3.8,1.6,3.8,4c0,0.8-0.1,1.6-0.3,2.7h-5.6c-0.2,1.6,0.8,2.3,2.4,2.3
				c1,0,1.9-0.2,2.9-0.7L209.3,48.4z"/>
		</defs>
		<clipPath id="SVGID_102_">
			<use xlink:href="#SVGID_101_"  overflow="visible"/>
		</clipPath>
		<g clip-path="url(#SVGID_102_)">
			<defs>
				<rect id="SVGID_103_" x="-166.3" y="-28" width="484" height="235"/>
			</defs>
			<clipPath id="SVGID_104_">
				<use xlink:href="#SVGID_103_"  overflow="visible"/>
			</clipPath>
			<rect x="196.6" y="32.4" clip-path="url(#SVGID_104_)" fill="#FFFFFF" width="18.7" height="21.4"/>
		</g>
	</g>
	<g>
		<defs>
			<path id="SVGID_105_" d="M189.9,41.2c0,1.4,0.7,2.4,2.1,3.1c1.1,0.6,1.3,0.7,1.3,1.2c0,0.7-0.5,1-1.6,1c-0.8,0-1.6-0.1-2.5-0.4
				c0,0-0.4,2.4-0.4,2.5c0.6,0.1,1.2,0.3,2.9,0.3c3,0,4.3-1.2,4.3-3.7c0-1.5-0.6-2.4-2-3.1c-1.2-0.6-1.3-0.7-1.3-1.2
				c0-0.6,0.5-0.9,1.4-0.9c0.6,0,1.3,0.1,2,0.2l0.4-2.6c-0.7-0.1-1.8-0.2-2.5-0.2C190.9,37.4,189.8,39.1,189.9,41.2"/>
		</defs>
		<clipPath id="SVGID_106_">
			<use xlink:href="#SVGID_105_"  overflow="visible"/>
		</clipPath>
		<g clip-path="url(#SVGID_106_)">
			<defs>
				<rect id="SVGID_107_" x="-166.3" y="-28" width="484" height="235"/>
			</defs>
			<clipPath id="SVGID_108_">
				<use xlink:href="#SVGID_107_"  overflow="visible"/>
			</clipPath>
			<rect x="183.8" y="32.4" clip-path="url(#SVGID_108_)" fill="#FFFFFF" width="17.8" height="21.4"/>
		</g>
	</g>
	<g>
		<defs>
			<path id="SVGID_109_" d="M243.3,46.1c1.3,0,2.2-1.5,2.2-3.7c0-1.4-0.5-2.2-1.5-2.2c-1.3,0-2.2,1.5-2.2,3.7
				C241.9,45.4,242.4,46.1,243.3,46.1z M247.5,48.7h-2.7l0.1-1c-0.8,0.8-1.6,1.2-2.6,1.2c-2,0-3.4-1.8-3.4-4.6
				c0-3.7,2.1-6.7,4.6-6.7c1.1,0,1.9,0.5,2.7,1.5l0.6-3.9h2.8L247.5,48.7z"/>
		</defs>
		<clipPath id="SVGID_110_">
			<use xlink:href="#SVGID_109_"  overflow="visible"/>
		</clipPath>
		<g clip-path="url(#SVGID_110_)">
			<defs>
				<rect id="SVGID_111_" x="-166.3" y="-28" width="484" height="235"/>
			</defs>
			<clipPath id="SVGID_112_">
				<use xlink:href="#SVGID_111_"  overflow="visible"/>
			</clipPath>
			<rect x="233.9" y="30.2" clip-path="url(#SVGID_112_)" fill="#FFFFFF" width="20.7" height="23.7"/>
		</g>
	</g>
	<g>
		<defs>
			<path id="SVGID_113_" d="M235.1,37.7c-0.4,3.4-1,6.9-1.5,10.3l-0.1,0.7h2.8c1-6.7,1.3-8,2.8-7.9c0.3-1.4,0.7-2.6,1.1-3.2
				c-1.2-0.3-1.8,0.4-2.7,1.7c0.1-0.6,0.2-1.1,0.2-1.7H235.1"/>
		</defs>
		<clipPath id="SVGID_114_">
			<use xlink:href="#SVGID_113_"  overflow="visible"/>
		</clipPath>
		<g clip-path="url(#SVGID_114_)">
			<defs>
				<rect id="SVGID_115_" x="-166.3" y="-28" width="484" height="235"/>
			</defs>
			<clipPath id="SVGID_116_">
				<use xlink:href="#SVGID_115_"  overflow="visible"/>
			</clipPath>
			<rect x="228.5" y="32.6" clip-path="url(#SVGID_116_)" fill="#FFFFFF" width="16.7" height="21.1"/>
		</g>
	</g>
	<g>
		<defs>
			<path id="SVGID_117_" d="M211.9,37.7c-0.4,3.4-1,6.9-1.5,10.3l-0.1,0.7h2.8c1-6.7,1.3-8,2.8-7.9c0.3-1.4,0.7-2.6,1.1-3.2
				c-1.2-0.3-1.8,0.4-2.7,1.7c0.1-0.6,0.2-1.1,0.2-1.7H211.9"/>
		</defs>
		<clipPath id="SVGID_118_">
			<use xlink:href="#SVGID_117_"  overflow="visible"/>
		</clipPath>
		<g clip-path="url(#SVGID_118_)">
			<defs>
				<rect id="SVGID_119_" x="-166.3" y="-28" width="484" height="235"/>
			</defs>
			<clipPath id="SVGID_120_">
				<use xlink:href="#SVGID_119_"  overflow="visible"/>
			</clipPath>
			<rect x="205.3" y="32.6" clip-path="url(#SVGID_120_)" fill="#FFFFFF" width="16.7" height="21.1"/>
		</g>
	</g>
</g>
<g>
	<g>
		<defs>
			<path id="SVGID_121_" d="M285.3,4c0-2.2,1.8-4,4-4h125c2.2,0,4,1.8,4,4v74c0,2.2-1.8,4-4,4h-125c-2.2,0-4-1.8-4-4V4z"/>
		</defs>
		<clipPath id="SVGID_122_">
			<use xlink:href="#SVGID_121_"  overflow="visible"/>
		</clipPath>
		<g clip-path="url(#SVGID_122_)">
			<defs>
				<rect id="SVGID_123_" x="-33.7" y="-118" width="484" height="235"/>
			</defs>
			<clipPath id="SVGID_124_">
				<use xlink:href="#SVGID_123_"  overflow="visible"/>
			</clipPath>
			<path clip-path="url(#SVGID_124_)" fill="none" stroke="#E6772F" stroke-width="2" stroke-miterlimit="10" d="M285.3,4
				c0-2.2,1.8-4,4-4h125c2.2,0,4,1.8,4,4v74c0,2.2-1.8,4-4,4h-125c-2.2,0-4-1.8-4-4V4z"/>
		</g>
	</g>
	<g>
		<defs>
			<path id="SVGID_125_" d="M285.3,4c0-2.2,1.8-4,4-4h125c2.2,0,4,1.8,4,4v74c0,2.2-1.8,4-4,4h-125c-2.2,0-4-1.8-4-4V4z"/>
		</defs>
		<clipPath id="SVGID_126_">
			<use xlink:href="#SVGID_125_"  overflow="visible"/>
		</clipPath>
		<g clip-path="url(#SVGID_126_)">
			<defs>
				<rect id="SVGID_127_" x="-33.7" y="-118" width="484" height="235"/>
			</defs>
			<clipPath id="SVGID_128_">
				<use xlink:href="#SVGID_127_"  overflow="visible"/>
			</clipPath>
			<g clip-path="url(#SVGID_128_)" enable-background="new    ">
				<g>
					<defs>
						<rect id="SVGID_129_" x="285.3" width="133" height="82"/>
					</defs>
					<clipPath id="SVGID_130_">
						<use xlink:href="#SVGID_129_"  overflow="visible"/>
					</clipPath>
					<g clip-path="url(#SVGID_130_)">
						<defs>
							<rect id="SVGID_131_" x="285.3" width="133" height="82"/>
						</defs>
						<clipPath id="SVGID_132_">
							<use xlink:href="#SVGID_131_"  overflow="visible"/>
						</clipPath>
						<path clip-path="url(#SVGID_132_)" fill="#FFFFFF" d="M285.3,4c0-2.2,1.8-4,4-4h125c2.2,0,4,1.8,4,4v74c0,2.2-1.8,4-4,4h-125
							c-2.2,0-4-1.8-4-4V4z"/>
					</g>
					<g clip-path="url(#SVGID_130_)">
						<defs>
							<path id="SVGID_133_" d="M285.3,4c0-2.2,1.8-4,4-4h125c2.2,0,4,1.8,4,4v74c0,2.2-1.8,4-4,4h-125c-2.2,0-4-1.8-4-4V4z"/>
						</defs>
						<clipPath id="SVGID_134_">
							<use xlink:href="#SVGID_133_"  overflow="visible"/>
						</clipPath>
						<g clip-path="url(#SVGID_134_)">
							<defs>
								<rect id="SVGID_135_" x="285.3" width="133" height="82"/>
							</defs>
							<clipPath id="SVGID_136_">
								<use xlink:href="#SVGID_135_"  overflow="visible"/>
							</clipPath>
							<path clip-path="url(#SVGID_136_)" fill="none" stroke="#E6772F" stroke-width="2" stroke-miterlimit="10" d="M285.3,4
								c0-2.2,1.8-4,4-4h125c2.2,0,4,1.8,4,4v74c0,2.2-1.8,4-4,4h-125c-2.2,0-4-1.8-4-4V4z"/>
						</g>
					</g>
				</g>
			</g>
		</g>
	</g>
	<g>
		<defs>
			<path id="SVGID_137_" d="M317.4,82h96.9c2.2,0,4-1.8,4-4V46.1C418.3,46.1,382.7,70.9,317.4,82z"/>
		</defs>
		<clipPath id="SVGID_138_">
			<use xlink:href="#SVGID_137_"  overflow="visible"/>
		</clipPath>
		<g clip-path="url(#SVGID_138_)">
			<defs>
				<rect id="SVGID_139_" x="-33.7" y="-118" width="484" height="235"/>
			</defs>
			<clipPath id="SVGID_140_">
				<use xlink:href="#SVGID_139_"  overflow="visible"/>
			</clipPath>
			<g clip-path="url(#SVGID_140_)" enable-background="new    ">
				<g>
					<defs>
						<rect id="SVGID_141_" x="312.3" y="41" width="111" height="46"/>
					</defs>
					<clipPath id="SVGID_142_">
						<use xlink:href="#SVGID_141_"  overflow="visible"/>
					</clipPath>
					<g clip-path="url(#SVGID_142_)">
						<defs>
							<rect id="SVGID_143_" x="317.3" y="46" width="101" height="36"/>
						</defs>
						<clipPath id="SVGID_144_">
							<use xlink:href="#SVGID_143_"  overflow="visible"/>
						</clipPath>
						<rect x="312.4" y="41.1" clip-path="url(#SVGID_144_)" fill="#E6772F" width="110.9" height="45.9"/>
					</g>
				</g>
			</g>
		</g>
	</g>
	<g>
		<defs>
			<path id="SVGID_145_" d="M306,28.9h-4.6v15.8h4.6c2.4,0,4.2-0.6,5.7-1.8c1.8-1.5,2.9-3.7,2.9-6.1C314.6,32.1,311.1,28.9,306,28.9
				z M309.7,40.8c-1,0.9-2.3,1.3-4.3,1.3h-0.8V31.5h0.8c2,0,3.3,0.4,4.3,1.3c1.1,1,1.7,2.4,1.7,3.9
				C311.4,38.3,310.7,39.8,309.7,40.8z"/>
		</defs>
		<clipPath id="SVGID_146_">
			<use xlink:href="#SVGID_145_"  overflow="visible"/>
		</clipPath>
		<g clip-path="url(#SVGID_146_)">
			<defs>
				<rect id="SVGID_147_" x="-33.7" y="-118" width="484" height="235"/>
			</defs>
			<clipPath id="SVGID_148_">
				<use xlink:href="#SVGID_147_"  overflow="visible"/>
			</clipPath>
			<rect x="296.4" y="23.9" clip-path="url(#SVGID_148_)" fill="#1A1919" width="23.3" height="25.8"/>
		</g>
	</g>
	<g>
		<defs>
			<rect id="SVGID_149_" x="316.1" y="28.9" width="3.1" height="15.8"/>
		</defs>
		<clipPath id="SVGID_150_">
			<use xlink:href="#SVGID_149_"  overflow="visible"/>
		</clipPath>
		<g clip-path="url(#SVGID_150_)">
			<defs>
				<rect id="SVGID_151_" x="-33.7" y="-118" width="484" height="235"/>
			</defs>
			<clipPath id="SVGID_152_">
				<use xlink:href="#SVGID_151_"  overflow="visible"/>
			</clipPath>
			<rect x="311.1" y="23.9" clip-path="url(#SVGID_152_)" fill="#1A1919" width="13.1" height="25.8"/>
		</g>
	</g>
	<g>
		<defs>
			<path id="SVGID_153_" d="M326.9,34.9c-1.9-0.7-2.4-1.1-2.4-2c0-1,1-1.7,2.3-1.7c0.9,0,1.7,0.4,2.5,1.3l1.6-2.1
				c-1.3-1.2-3-1.8-4.7-1.8c-2.8,0-5,1.9-5,4.5c0,2.2,1,3.3,4,4.4c1.2,0.4,1.9,0.7,2.2,0.9c0.6,0.4,0.9,1,0.9,1.6
				c0,1.3-1,2.2-2.4,2.2c-1.5,0-2.7-0.7-3.4-2.1l-2,1.9c1.4,2.1,3.2,3,5.6,3c3.3,0,5.6-2.1,5.6-5.2
				C331.5,37.4,330.5,36.2,326.9,34.9"/>
		</defs>
		<clipPath id="SVGID_154_">
			<use xlink:href="#SVGID_153_"  overflow="visible"/>
		</clipPath>
		<g clip-path="url(#SVGID_154_)">
			<defs>
				<rect id="SVGID_155_" x="-33.7" y="-118" width="484" height="235"/>
			</defs>
			<clipPath id="SVGID_156_">
				<use xlink:href="#SVGID_155_"  overflow="visible"/>
			</clipPath>
			<rect x="315.4" y="23.6" clip-path="url(#SVGID_156_)" fill="#1A1919" width="21.1" height="26.5"/>
		</g>
	</g>
	<g>
		<defs>
			<path id="SVGID_157_" d="M332.5,36.8c0,4.7,3.7,8.3,8.5,8.3c1.3,0,2.5-0.3,3.9-0.9v-3.6c-1.3,1.2-2.4,1.7-3.8,1.7
				c-3.2,0-5.4-2.2-5.4-5.5c0-3,2.3-5.4,5.3-5.4c1.5,0,2.6,0.5,3.9,1.8v-3.6c-1.4-0.7-2.5-1-3.9-1C336.3,28.5,332.5,32.2,332.5,36.8
				"/>
		</defs>
		<clipPath id="SVGID_158_">
			<use xlink:href="#SVGID_157_"  overflow="visible"/>
		</clipPath>
		<g clip-path="url(#SVGID_158_)">
			<defs>
				<rect id="SVGID_159_" x="-33.7" y="-118" width="484" height="235"/>
			</defs>
			<clipPath id="SVGID_160_">
				<use xlink:href="#SVGID_159_"  overflow="visible"/>
			</clipPath>
			<rect x="327.5" y="23.5" clip-path="url(#SVGID_160_)" fill="#1A1919" width="22.4" height="26.5"/>
		</g>
	</g>
	<g>
		<defs>
			<polyline id="SVGID_161_" points="370.4,39.5 366.1,28.9 362.7,28.9 369.5,45.1 371.2,45.1 378.1,28.9 374.7,28.9 370.4,39.5 			
				"/>
		</defs>
		<clipPath id="SVGID_162_">
			<use xlink:href="#SVGID_161_"  overflow="visible"/>
		</clipPath>
		<g clip-path="url(#SVGID_162_)">
			<defs>
				<rect id="SVGID_163_" x="-33.7" y="-118" width="484" height="235"/>
			</defs>
			<clipPath id="SVGID_164_">
				<use xlink:href="#SVGID_163_"  overflow="visible"/>
			</clipPath>
			<rect x="357.7" y="23.9" clip-path="url(#SVGID_164_)" fill="#1A1919" width="25.5" height="26.2"/>
		</g>
	</g>
	<g>
		<defs>
			<polyline id="SVGID_165_" points="379.6,44.7 388.5,44.7 388.5,42 382.7,42 382.7,37.7 388.2,37.7 388.2,35.1 382.7,35.1 
				382.7,31.5 388.5,31.5 388.5,28.9 379.6,28.9 379.6,44.7 			"/>
		</defs>
		<clipPath id="SVGID_166_">
			<use xlink:href="#SVGID_165_"  overflow="visible"/>
		</clipPath>
		<g clip-path="url(#SVGID_166_)">
			<defs>
				<rect id="SVGID_167_" x="-33.7" y="-118" width="484" height="235"/>
			</defs>
			<clipPath id="SVGID_168_">
				<use xlink:href="#SVGID_167_"  overflow="visible"/>
			</clipPath>
			<rect x="374.6" y="23.9" clip-path="url(#SVGID_168_)" fill="#1A1919" width="18.9" height="25.8"/>
		</g>
	</g>
	<g>
		<defs>
			<path id="SVGID_169_" d="M400.9,33.5c0-3-2.1-4.7-5.7-4.7h-4.7v15.8h3.1v-6.4h0.4l4.3,6.4h3.9l-5.1-6.7
				C399.6,37.6,400.9,36,400.9,33.5z M394.6,36.1h-0.9v-4.8h1c2,0,3,0.8,3,2.4C397.7,35.3,396.6,36.1,394.6,36.1z"/>
		</defs>
		<clipPath id="SVGID_170_">
			<use xlink:href="#SVGID_169_"  overflow="visible"/>
		</clipPath>
		<g clip-path="url(#SVGID_170_)">
			<defs>
				<rect id="SVGID_171_" x="-33.7" y="-118" width="484" height="235"/>
			</defs>
			<clipPath id="SVGID_172_">
				<use xlink:href="#SVGID_171_"  overflow="visible"/>
			</clipPath>
			<rect x="385.5" y="23.9" clip-path="url(#SVGID_172_)" fill="#1A1919" width="21.8" height="25.8"/>
		</g>
	</g>
	<g>
		<defs>
			<path id="SVGID_173_" d="M363.1,36.8c0,4.6-3.8,8.3-8.4,8.3c-4.6,0-8.4-3.7-8.4-8.3c0-4.6,3.8-8.3,8.4-8.3
				C359.4,28.6,363.1,32.3,363.1,36.8"/>
		</defs>
		<clipPath id="SVGID_174_">
			<use xlink:href="#SVGID_173_"  overflow="visible"/>
		</clipPath>
		<g clip-path="url(#SVGID_174_)">
			<defs>
				<rect id="SVGID_175_" x="-33.7" y="-118" width="484" height="235"/>
			</defs>
			<clipPath id="SVGID_176_">
				<use xlink:href="#SVGID_175_"  overflow="visible"/>
			</clipPath>
			<rect x="341.3" y="23.6" clip-path="url(#SVGID_176_)" fill="#E6772F" width="26.8" height="26.5"/>
		</g>
	</g>
</g>
</svg>
