<?xml version="1.0" encoding="utf-8"?>
<!-- Generator: Adobe Illustrator 18.1.1, SVG Export Plug-In . SVG Version: 6.00 Build 0)  -->
<svg version="1.1" id="Layer_1" xmlns="http://www.w3.org/2000/svg" xmlns:xlink="http://www.w3.org/1999/xlink" x="0px" y="0px"
	 viewBox="0 0 170.3 39" enable-background="new 0 0 170.3 39" xml:space="preserve">
<g>
	<defs>
		<rect id="SVGID_1_" y="0" width="170.3" height="39"/>
	</defs>
	<clipPath id="SVGID_2_">
		<use xlink:href="#SVGID_1_"  overflow="visible"/>
	</clipPath>
	<path clip-path="url(#SVGID_2_)" d="M22.6,22.1c0.2,0.4,0.2,0.8,0.1,1.3c-0.1,0.6-0.4,1.1-0.8,1.4c-0.4,0.4-0.9,0.6-1.4,0.6
		c-0.5,0-1.1,0-1.8-0.1l-1.2-0.2c-0.4-0.1-0.6-0.1-0.7-0.2c-0.1-0.1-0.1-0.1-0.2-0.3c0-0.1,0-0.4,0.1-0.9l0.7-3.6l2.2,0.4
		c1,0.2,1.7,0.4,2.1,0.7C22.1,21.4,22.4,21.7,22.6,22.1 M22.7,14.4c-0.4-0.2-1.1-0.4-2.2-0.6l-1.8-0.3l-0.8,4.1l1.8,0.3
		c1,0.2,1.7,0.2,2.2,0.2c0.5-0.1,0.9-0.3,1.2-0.5c0.3-0.3,0.5-0.6,0.6-1.1c0.1-0.4,0-0.8-0.1-1.2C23.4,14.9,23.1,14.6,22.7,14.4
		 M39,19.5C39,30.3,30.3,39,19.5,39C8.7,39,0,30.3,0,19.5C0,8.7,8.7,0,19.5,0C30.3,0,39,8.7,39,19.5 M27.6,14.4
		c-0.3-0.7-0.9-1.3-1.7-1.8c-0.3-0.2-0.7-0.4-1.1-0.5l0.5-3l-2.8-0.5L22,11.3l-1.8-0.3l0.5-2.8l-2.8-0.5l-0.5,2.8L13,9.6l-0.4,2.3
		l0.7,0.1c0.4,0.1,0.7,0.2,0.9,0.3c0.1,0.1,0.2,0.2,0.3,0.4c0,0.1,0,0.5-0.1,1l-1.8,9.4c-0.1,0.5-0.2,0.8-0.3,0.9
		c-0.1,0.1-0.2,0.2-0.4,0.3c-0.2,0.1-0.5,0-0.9-0.1l-0.7-0.1l-0.4,2.3l4.4,0.8L13.6,30l2.9,0.5l0.5-2.8l1.6,0.3c0.1,0,0.1,0,0.2,0
		l-0.5,2.8l2.8,0.5l0.6-3c0.5,0,0.9-0.1,1.3-0.1c1.1-0.2,1.9-0.7,2.6-1.3c0.7-0.6,1.1-1.4,1.3-2.3c0.2-0.8,0.1-1.5-0.1-2.1
		c-0.2-0.7-0.6-1.2-1.2-1.7c-0.4-0.3-0.9-0.6-1.7-1c0.8-0.1,1.4-0.3,1.9-0.6c0.5-0.3,0.9-0.7,1.3-1.1c0.3-0.5,0.5-1,0.7-1.5
		C28,15.8,27.9,15.1,27.6,14.4 M63.6,23.9C63.6,31,59,39,49.2,39c-5.2,0-7.7-2.2-7.7-6.1c0-1.3,0.2-2.7,0.5-4l4.4-22h6.4l-2.6,12.4
		h0.1c1.6-1.9,4-3.1,6.7-3.1C61.6,16.3,63.6,20,63.6,23.9 M56.9,25.2c0-2.1-0.9-3.7-2.8-3.7c-2.3,0-4.6,2.4-5.3,6.1l-0.4,1.8
		c-0.1,0.7-0.3,1.5-0.2,2.4c0,1.6,1,2.4,2.4,2.4C54.3,34.2,56.9,29,56.9,25.2 M65.4,38.6h6.4l4.1-21.7h-6.4L65.4,38.6z M74.1,7.4
		c-2,0-3.6,1.5-3.7,3.6c0,1.9,1.3,3.1,3.1,3.1c2.1,0,3.8-1.3,3.8-3.6C77.3,8.6,75.9,7.4,74.1,7.4 M89.4,10.8l-6.5,1.5L82,16.8h-2.8
		l-0.9,4.8h2.8l-1.7,8.7c-0.3,1.7-0.4,2.9-0.4,4c0,2.7,1.8,4.7,5.6,4.7c1.4,0,3-0.2,3.8-0.5l0.8-5c-0.6,0.1-1.2,0.1-1.8,0.1
		c-1.4,0-1.8-0.8-1.8-1.8c0-0.8,0.2-1.9,0.4-2.8l1.5-7.4H92l0.9-4.8h-4.6L89.4,10.8z M93.1,30.1c0,5.6,3.8,8.9,9.1,8.9
		c2.6,0,4.8-0.4,6.2-1.1l0-4.9c-1.1,0.4-2.4,0.9-4.3,0.9c-2.4,0-4.3-1.5-4.3-4.5c0-4.1,2.8-7.9,7.4-7.9c1.3,0,2.2,0.2,2.9,0.5
		l1.5-4.9c-0.9-0.4-2.5-0.8-4.4-0.8C99,16.3,93.1,22.4,93.1,30.1 M134.2,25.3c0,8-5.4,13.8-13,13.8c-5.5,0-9.2-3.6-9.2-9
		c0-7.5,5.2-13.7,13-13.7C130.8,16.3,134.2,20.3,134.2,25.3 M127.6,25.3c0-2-0.8-4.1-3.4-4.1c-3.7,0-5.6,5.4-5.5,8.7
		c0,2.5,1.3,4.2,3.5,4.2C125.6,34.2,127.6,29,127.6,25.3 M144.8,7.4c-1.9,0-3.6,1.5-3.7,3.6c0,1.9,1.3,3.1,3.1,3.1
		c2.1,0,3.8-1.3,3.8-3.6C148,8.6,146.7,7.4,144.8,7.4 M136.1,38.6h6.4l4.1-21.7h-6.4L136.1,38.6z M164.7,16.3
		c-2.9,0-5.6,1.3-7.6,4.1H157l0.4-3.6h-5.7c-0.3,1.9-0.6,4.3-1.2,7.1l-2.8,14.7h6.4l1.8-9.6c0.9-4.8,3.3-7.4,5.4-7.4
		c1.6,0,2.1,1.1,2.1,2.6c0,0.8-0.1,1.7-0.2,2.5l-2.3,12h6.4l2.4-12.6c0.2-1.1,0.4-2.7,0.4-3.7C170.3,18.5,168.3,16.3,164.7,16.3"/>
</g>
</svg>
