<?xml version="1.0" encoding="utf-8"?>
<!-- Generator: Adobe Illustrator 18.1.1, SVG Export Plug-In . SVG Version: 6.00 Build 0)  -->
<svg version="1.1" id="Layer_1" xmlns="http://www.w3.org/2000/svg" xmlns:xlink="http://www.w3.org/1999/xlink" x="0px" y="0px"
	 viewBox="0 0 133 82" enable-background="new 0 0 133 82" xml:space="preserve">
<g>
	<g>
		<defs>
			<path id="SVGID_1_" d="M0,4c0-2.2,1.8-4,4-4h125c2.2,0,4,1.8,4,4v74c0,2.2-1.8,4-4,4H4c-2.2,0-4-1.8-4-4V4z"/>
		</defs>
		<clipPath id="SVGID_2_">
			<use xlink:href="#SVGID_1_"  overflow="visible"/>
		</clipPath>
		<g clip-path="url(#SVGID_2_)">
			<defs>
				<rect id="SVGID_3_" x="-309" y="-28" width="484" height="235"/>
			</defs>
			<clipPath id="SVGID_4_">
				<use xlink:href="#SVGID_3_"  overflow="visible"/>
			</clipPath>
			<rect x="-5" y="-5" clip-path="url(#SVGID_4_)" fill="#000066" width="143" height="92"/>
		</g>
	</g>
	<g>
		<defs>
			<path id="SVGID_5_" d="M74.7,41.7c0,14.7-11.6,26.7-26,26.7c-14.3,0-26-11.9-26-26.7c0-14.7,11.6-26.7,26-26.7
				C63,15,74.7,26.9,74.7,41.7"/>
		</defs>
		<clipPath id="SVGID_6_">
			<use xlink:href="#SVGID_5_"  overflow="visible"/>
		</clipPath>
		<g clip-path="url(#SVGID_6_)">
			<defs>
				<rect id="SVGID_7_" x="-309" y="-28" width="484" height="235"/>
			</defs>
			<clipPath id="SVGID_8_">
				<use xlink:href="#SVGID_7_"  overflow="visible"/>
			</clipPath>
			<rect x="17.7" y="10" clip-path="url(#SVGID_8_)" fill="#CC0000" width="61.9" height="63.3"/>
		</g>
	</g>
	<g>
		<defs>
			<path id="SVGID_9_" d="M83.5,15c-6.7,0-12.8,2.6-17.4,6.9c-0.9,0.9-1.8,1.8-2.6,2.8h5.2c0.7,0.9,1.4,1.8,2,2.8h-9.2
				c-0.6,0.9-1.1,1.8-1.5,2.8h12.2c0.4,0.9,0.8,1.9,1.1,2.8H58.9c-0.3,0.9-0.6,1.9-0.8,2.8h15.9c0.4,1.8,0.6,3.7,0.6,5.6
				c0,3-0.5,5.8-1.3,8.5H58.9c0.3,1,0.7,1.9,1.1,2.8h12.2c-0.4,1-0.9,1.9-1.5,2.8h-9.2c0.6,1,1.3,1.9,2,2.8h5.2
				c-0.8,1-1.7,2-2.6,2.8c4.6,4.3,10.7,6.9,17.4,6.9c14.3,0,26-11.9,26-26.7C109.5,26.9,97.9,15,83.5,15"/>
		</defs>
		<clipPath id="SVGID_10_">
			<use xlink:href="#SVGID_9_"  overflow="visible"/>
		</clipPath>
		<g clip-path="url(#SVGID_10_)">
			<defs>
				<rect id="SVGID_11_" x="-309" y="-28" width="484" height="235"/>
			</defs>
			<clipPath id="SVGID_12_">
				<use xlink:href="#SVGID_11_"  overflow="visible"/>
			</clipPath>
			<rect x="53.2" y="10" clip-path="url(#SVGID_12_)" fill="#FF9900" width="61.3" height="63.3"/>
		</g>
	</g>
	<g>
		<defs>
			<path id="SVGID_13_" d="M44.7,49.5h-2.3l0.1-1.1c-0.7,0.9-1.7,1.3-3,1.3c-1.5,0-2.6-1.2-2.6-3c0-2.7,1.8-4.2,4.9-4.2
				c0.3,0,0.7,0,1.1,0.1c0.1-0.4,0.1-0.5,0.1-0.7c0-0.7-0.5-1-1.8-1c-1.4,0-2.5,0.3-3,0.5c0-0.2,0.4-2.5,0.4-2.5
				c1.4-0.4,2.3-0.6,3.4-0.6c2.4,0,3.7,1.1,3.7,3.2c0,0.6-0.1,1.3-0.2,2.2C45.3,45.2,44.8,48.7,44.7,49.5z M42.6,44.6
				c-0.3,0-0.4,0-0.6,0c-1.6,0-2.4,0.6-2.4,1.7c0,0.7,0.4,1.1,1,1.1C41.8,47.3,42.6,46.2,42.6,44.6z"/>
		</defs>
		<clipPath id="SVGID_14_">
			<use xlink:href="#SVGID_13_"  overflow="visible"/>
		</clipPath>
		<g clip-path="url(#SVGID_14_)">
			<defs>
				<rect id="SVGID_15_" x="-309" y="-28" width="484" height="235"/>
			</defs>
			<clipPath id="SVGID_16_">
				<use xlink:href="#SVGID_15_"  overflow="visible"/>
			</clipPath>
			<rect x="31.9" y="33.2" clip-path="url(#SVGID_16_)" fill="#000066" width="18.9" height="21.4"/>
		</g>
	</g>
	<g>
		<defs>
			<polyline id="SVGID_17_" points="35.7,49.5 32.9,49.5 34.5,39.1 30.9,49.5 29,49.5 28.7,39.1 27,49.5 24.4,49.5 26.6,36 30.7,36 
				30.9,43.5 33.4,36 37.9,36 35.7,49.5 			"/>
		</defs>
		<clipPath id="SVGID_18_">
			<use xlink:href="#SVGID_17_"  overflow="visible"/>
		</clipPath>
		<g clip-path="url(#SVGID_18_)">
			<defs>
				<rect id="SVGID_19_" x="-309" y="-28" width="484" height="235"/>
			</defs>
			<clipPath id="SVGID_20_">
				<use xlink:href="#SVGID_19_"  overflow="visible"/>
			</clipPath>
			<rect x="19.4" y="31" clip-path="url(#SVGID_20_)" fill="#000066" width="23.5" height="23.5"/>
		</g>
	</g>
	<g>
		<defs>
			<path id="SVGID_21_" d="M89.1,49.5h-2.3l0.1-1.1c-0.7,0.9-1.7,1.3-3,1.3c-1.5,0-2.6-1.2-2.6-3c0-2.7,1.8-4.2,4.9-4.2
				c0.3,0,0.7,0,1.1,0.1c0.1-0.4,0.1-0.5,0.1-0.7c0-0.7-0.5-1-1.8-1c-1.4,0-2.5,0.3-3,0.5c0-0.2,0.4-2.5,0.4-2.5
				c1.4-0.4,2.3-0.6,3.4-0.6c2.4,0,3.7,1.1,3.7,3.2c0,0.6-0.1,1.3-0.2,2.2C89.7,45.2,89.1,48.7,89.1,49.5z M87,44.6
				c-0.3,0-0.4,0-0.6,0c-1.6,0-2.4,0.6-2.4,1.7c0,0.7,0.4,1.1,1,1.1C86.1,47.3,87,46.2,87,44.6z"/>
		</defs>
		<clipPath id="SVGID_22_">
			<use xlink:href="#SVGID_21_"  overflow="visible"/>
		</clipPath>
		<g clip-path="url(#SVGID_22_)">
			<defs>
				<rect id="SVGID_23_" x="-309" y="-28" width="484" height="235"/>
			</defs>
			<clipPath id="SVGID_24_">
				<use xlink:href="#SVGID_23_"  overflow="visible"/>
			</clipPath>
			<rect x="76.3" y="33.2" clip-path="url(#SVGID_24_)" fill="#000066" width="18.9" height="21.4"/>
		</g>
	</g>
	<g>
		<defs>
			<path id="SVGID_25_" d="M57.2,49.3c-0.8,0.2-1.4,0.4-2,0.4c-1.4,0-2.2-0.9-2.2-2.4c0-0.5,0.2-1.8,0.4-2.9c0.2-1,1.2-7.5,1.2-7.5
				h2.8L57,38.5h1.7l-0.4,2.6h-1.7c-0.3,2.1-0.8,4.7-0.8,5c0,0.6,0.3,0.8,1,0.8c0.3,0,0.6,0,0.8-0.1L57.2,49.3"/>
		</defs>
		<clipPath id="SVGID_26_">
			<use xlink:href="#SVGID_25_"  overflow="visible"/>
		</clipPath>
		<g clip-path="url(#SVGID_26_)">
			<defs>
				<rect id="SVGID_27_" x="-309" y="-28" width="484" height="235"/>
			</defs>
			<clipPath id="SVGID_28_">
				<use xlink:href="#SVGID_27_"  overflow="visible"/>
			</clipPath>
			<rect x="48" y="31.8" clip-path="url(#SVGID_28_)" fill="#000066" width="15.8" height="22.9"/>
		</g>
	</g>
	<g>
		<defs>
			<path id="SVGID_29_" d="M64.2,42.7c0-0.2,0.3-2-1.3-2c-0.9,0-1.5,0.7-1.8,2H64.2z M65.8,49.2c-1,0.3-1.9,0.4-2.9,0.4
				c-3.1,0-4.8-1.7-4.8-4.9c0-3.8,2.1-6.5,4.9-6.5c2.3,0,3.8,1.6,3.8,4c0,0.8-0.1,1.6-0.3,2.7h-5.6c-0.2,1.6,0.8,2.3,2.4,2.3
				c1,0,1.9-0.2,2.9-0.7L65.8,49.2z"/>
		</defs>
		<clipPath id="SVGID_30_">
			<use xlink:href="#SVGID_29_"  overflow="visible"/>
		</clipPath>
		<g clip-path="url(#SVGID_30_)">
			<defs>
				<rect id="SVGID_31_" x="-309" y="-28" width="484" height="235"/>
			</defs>
			<clipPath id="SVGID_32_">
				<use xlink:href="#SVGID_31_"  overflow="visible"/>
			</clipPath>
			<rect x="53.2" y="33.2" clip-path="url(#SVGID_32_)" fill="#000066" width="18.7" height="21.4"/>
		</g>
	</g>
	<g>
		<defs>
			<path id="SVGID_33_" d="M46.4,42c0,1.4,0.7,2.4,2.1,3.1c1.1,0.6,1.3,0.7,1.3,1.2c0,0.7-0.5,1-1.6,1c-0.8,0-1.6-0.1-2.5-0.4
				c0,0-0.4,2.4-0.4,2.5c0.6,0.1,1.2,0.3,2.9,0.3c3,0,4.3-1.2,4.3-3.7c0-1.5-0.6-2.4-2-3.1c-1.2-0.6-1.3-0.7-1.3-1.2
				c0-0.6,0.5-0.9,1.4-0.9c0.6,0,1.3,0.1,2,0.2l0.4-2.6c-0.7-0.1-1.8-0.2-2.5-0.2C47.5,38.2,46.4,39.9,46.4,42"/>
		</defs>
		<clipPath id="SVGID_34_">
			<use xlink:href="#SVGID_33_"  overflow="visible"/>
		</clipPath>
		<g clip-path="url(#SVGID_34_)">
			<defs>
				<rect id="SVGID_35_" x="-309" y="-28" width="484" height="235"/>
			</defs>
			<clipPath id="SVGID_36_">
				<use xlink:href="#SVGID_35_"  overflow="visible"/>
			</clipPath>
			<rect x="40.3" y="33.2" clip-path="url(#SVGID_36_)" fill="#000066" width="17.8" height="21.4"/>
		</g>
	</g>
	<g>
		<defs>
			<path id="SVGID_37_" d="M79.5,38.5c0.8,0,1.5,0.2,2.5,0.7l0.5-2.9c-0.4-0.2-1.9-1.1-3.1-1.1c-1.9,0-3.5,1-4.6,2.5
				c-1.6-0.6-2.3,0.6-3.1,1.7l-0.7,0.2c0.1-0.4,0.1-0.7,0.1-1.1h-2.6c-0.4,3.4-1,6.9-1.5,10.3l-0.1,0.7h2.8c0.5-3.1,0.7-5.2,0.9-6.5
				l1.1-0.6c0.2-0.6,0.7-0.8,1.7-0.8c-0.1,0.7-0.2,1.5-0.2,2.3c0,3.6,1.9,5.8,4.9,5.8c0.8,0,1.5-0.1,2.5-0.4l0.5-3.1
				c-0.9,0.5-1.7,0.7-2.4,0.7c-1.6,0-2.6-1.2-2.6-3.3C75.9,40.6,77.4,38.5,79.5,38.5"/>
		</defs>
		<clipPath id="SVGID_38_">
			<use xlink:href="#SVGID_37_"  overflow="visible"/>
		</clipPath>
		<g clip-path="url(#SVGID_38_)">
			<defs>
				<rect id="SVGID_39_" x="-309" y="-28" width="484" height="235"/>
			</defs>
			<clipPath id="SVGID_40_">
				<use xlink:href="#SVGID_39_"  overflow="visible"/>
			</clipPath>
			<rect x="61.8" y="30.2" clip-path="url(#SVGID_40_)" fill="#000066" width="25.7" height="24.5"/>
		</g>
	</g>
	<g>
		<defs>
			<path id="SVGID_41_" d="M99.8,46.9c-1,0-1.4-0.7-1.4-2.2c0-2.2,0.9-3.7,2.2-3.7c1,0,1.5,0.8,1.5,2.2
				C102.1,45.4,101.1,46.9,99.8,46.9z M103.4,36l-0.6,3.9c-0.8-1-1.6-1.8-2.7-1.8c-1.4,0-2.7,1.1-3.6,2.7c-1.2-0.3-2.4-0.7-2.4-0.7
				l0,0c0.1-0.9,0.1-1.5,0.1-1.7h-2.6c-0.4,3.4-1,6.9-1.5,10.3L90,49.5h2.8c0.4-2.5,0.7-4.6,0.9-6.3c1-0.9,1.4-1.7,2.4-1.6
				c-0.4,1.1-0.7,2.3-0.7,3.6c0,2.7,1.4,4.6,3.4,4.6c1,0,1.8-0.4,2.6-1.2l-0.1,1h2.7l2.1-13.5H103.4z"/>
		</defs>
		<clipPath id="SVGID_42_">
			<use xlink:href="#SVGID_41_"  overflow="visible"/>
		</clipPath>
		<g clip-path="url(#SVGID_42_)">
			<defs>
				<rect id="SVGID_43_" x="-309" y="-28" width="484" height="235"/>
			</defs>
			<clipPath id="SVGID_44_">
				<use xlink:href="#SVGID_43_"  overflow="visible"/>
			</clipPath>
			<rect x="85" y="31" clip-path="url(#SVGID_44_)" fill="#000066" width="26.1" height="23.7"/>
		</g>
	</g>
	<g>
		<defs>
			<polyline id="SVGID_45_" points="36.5,48.7 33.7,48.7 35.3,38.3 31.7,48.7 29.8,48.7 29.5,38.3 27.8,48.7 25.2,48.7 27.4,35.2 
				31.5,35.2 31.6,43.5 34.3,35.2 38.7,35.2 36.5,48.7 			"/>
		</defs>
		<clipPath id="SVGID_46_">
			<use xlink:href="#SVGID_45_"  overflow="visible"/>
		</clipPath>
		<g clip-path="url(#SVGID_46_)">
			<defs>
				<rect id="SVGID_47_" x="-309" y="-28" width="484" height="235"/>
			</defs>
			<clipPath id="SVGID_48_">
				<use xlink:href="#SVGID_47_"  overflow="visible"/>
			</clipPath>
			<rect x="20.2" y="30.2" clip-path="url(#SVGID_48_)" fill="#FFFFFF" width="23.5" height="23.5"/>
		</g>
	</g>
	<g>
		<defs>
			<path id="SVGID_49_" d="M45.5,48.7h-2.3l0.1-1.1c-0.7,0.9-1.7,1.3-3,1.3c-1.5,0-2.6-1.2-2.6-3c0-2.7,1.8-4.2,4.9-4.2
				c0.3,0,0.7,0,1.1,0.1c0.1-0.4,0.1-0.5,0.1-0.7c0-0.7-0.5-1-1.8-1c-1.4,0-2.5,0.3-3,0.5c0-0.2,0.4-2.5,0.4-2.5
				c1.4-0.4,2.3-0.6,3.4-0.6c2.4,0,3.7,1.1,3.7,3.2c0,0.6-0.1,1.3-0.2,2.2C46.1,44.4,45.6,47.9,45.5,48.7z M43.4,43.8
				c-0.3,0-0.4,0-0.6,0c-1.6,0-2.4,0.6-2.4,1.7c0,0.7,0.4,1.1,1,1.1C42.6,46.5,43.4,45.4,43.4,43.8z"/>
		</defs>
		<clipPath id="SVGID_50_">
			<use xlink:href="#SVGID_49_"  overflow="visible"/>
		</clipPath>
		<g clip-path="url(#SVGID_50_)">
			<defs>
				<rect id="SVGID_51_" x="-309" y="-28" width="484" height="235"/>
			</defs>
			<clipPath id="SVGID_52_">
				<use xlink:href="#SVGID_51_"  overflow="visible"/>
			</clipPath>
			<rect x="32.7" y="32.4" clip-path="url(#SVGID_52_)" fill="#FFFFFF" width="18.9" height="21.4"/>
		</g>
	</g>
	<g>
		<defs>
			<path id="SVGID_53_" d="M83.3,35.5l-0.5,2.9c-1-0.5-1.7-0.7-2.5-0.7c-2.1,0-3.6,2.1-3.6,5.1c0,2.1,1,3.3,2.6,3.3
				c0.7,0,1.5-0.2,2.4-0.7l-0.5,3.1c-1,0.3-1.7,0.4-2.5,0.4c-3,0-4.9-2.2-4.9-5.8c0-4.8,2.6-8.2,6.3-8.2
				C81.4,34.8,82.9,35.4,83.3,35.5"/>
		</defs>
		<clipPath id="SVGID_54_">
			<use xlink:href="#SVGID_53_"  overflow="visible"/>
		</clipPath>
		<g clip-path="url(#SVGID_54_)">
			<defs>
				<rect id="SVGID_55_" x="-309" y="-28" width="484" height="235"/>
			</defs>
			<clipPath id="SVGID_56_">
				<use xlink:href="#SVGID_55_"  overflow="visible"/>
			</clipPath>
			<rect x="68.8" y="29.8" clip-path="url(#SVGID_56_)" fill="#FFFFFF" width="19.4" height="24.1"/>
		</g>
	</g>
	<g>
		<defs>
			<path id="SVGID_57_" d="M89.9,48.7h-2.3l0.1-1.1c-0.7,0.9-1.7,1.3-3,1.3c-1.5,0-2.6-1.2-2.6-3c0-2.7,1.8-4.2,4.9-4.2
				c0.3,0,0.7,0,1.1,0.1c0.1-0.4,0.1-0.5,0.1-0.7c0-0.7-0.5-1-1.8-1c-1.4,0-2.5,0.3-3,0.5c0-0.2,0.4-2.5,0.4-2.5
				c1.4-0.4,2.3-0.6,3.4-0.6c2.4,0,3.7,1.1,3.7,3.2c0,0.6-0.1,1.3-0.2,2.2C90.5,44.4,90,47.9,89.9,48.7z M87.8,43.8
				c-0.3,0-0.4,0-0.6,0c-1.6,0-2.4,0.6-2.4,1.7c0,0.7,0.4,1.1,1,1.1C87,46.5,87.8,45.4,87.8,43.8z"/>
		</defs>
		<clipPath id="SVGID_58_">
			<use xlink:href="#SVGID_57_"  overflow="visible"/>
		</clipPath>
		<g clip-path="url(#SVGID_58_)">
			<defs>
				<rect id="SVGID_59_" x="-309" y="-28" width="484" height="235"/>
			</defs>
			<clipPath id="SVGID_60_">
				<use xlink:href="#SVGID_59_"  overflow="visible"/>
			</clipPath>
			<rect x="77.1" y="32.4" clip-path="url(#SVGID_60_)" fill="#FFFFFF" width="18.9" height="21.4"/>
		</g>
	</g>
	<g>
		<defs>
			<path id="SVGID_61_" d="M58,48.5c-0.8,0.2-1.4,0.4-2,0.4c-1.4,0-2.2-0.9-2.2-2.4c0-0.5,0.2-1.8,0.4-2.9c0.2-1,1.2-7.5,1.2-7.5
				h2.8l-0.3,1.7h1.4l-0.4,2.6h-1.4c-0.3,2.1-0.8,4.7-0.8,5c0,0.6,0.3,0.8,1,0.8c0.3,0,0.6,0,0.8-0.1L58,48.5"/>
		</defs>
		<clipPath id="SVGID_62_">
			<use xlink:href="#SVGID_61_"  overflow="visible"/>
		</clipPath>
		<g clip-path="url(#SVGID_62_)">
			<defs>
				<rect id="SVGID_63_" x="-309" y="-28" width="484" height="235"/>
			</defs>
			<clipPath id="SVGID_64_">
				<use xlink:href="#SVGID_63_"  overflow="visible"/>
			</clipPath>
			<rect x="48.8" y="31" clip-path="url(#SVGID_64_)" fill="#FFFFFF" width="15.5" height="22.9"/>
		</g>
	</g>
	<g>
		<defs>
			<path id="SVGID_65_" d="M65,41.9c0-0.2,0.3-2-1.3-2c-0.9,0-1.5,0.7-1.8,2H65z M66.6,48.4c-1,0.3-1.9,0.4-2.9,0.4
				c-3.1,0-4.8-1.7-4.8-4.9c0-3.8,2.1-6.5,4.9-6.5c2.3,0,3.8,1.6,3.8,4c0,0.8-0.1,1.6-0.3,2.7h-5.6c-0.2,1.6,0.8,2.3,2.4,2.3
				c1,0,1.9-0.2,2.9-0.7L66.6,48.4z"/>
		</defs>
		<clipPath id="SVGID_66_">
			<use xlink:href="#SVGID_65_"  overflow="visible"/>
		</clipPath>
		<g clip-path="url(#SVGID_66_)">
			<defs>
				<rect id="SVGID_67_" x="-309" y="-28" width="484" height="235"/>
			</defs>
			<clipPath id="SVGID_68_">
				<use xlink:href="#SVGID_67_"  overflow="visible"/>
			</clipPath>
			<rect x="54" y="32.4" clip-path="url(#SVGID_68_)" fill="#FFFFFF" width="18.7" height="21.4"/>
		</g>
	</g>
	<g>
		<defs>
			<path id="SVGID_69_" d="M47.2,41.2c0,1.4,0.7,2.4,2.1,3.1c1.1,0.6,1.3,0.7,1.3,1.2c0,0.7-0.5,1-1.6,1c-0.8,0-1.6-0.1-2.5-0.4
				c0,0-0.4,2.4-0.4,2.5c0.6,0.1,1.2,0.3,2.9,0.3c3,0,4.3-1.2,4.3-3.7c0-1.5-0.6-2.4-2-3.1c-1.2-0.6-1.3-0.7-1.3-1.2
				c0-0.6,0.5-0.9,1.4-0.9c0.6,0,1.3,0.1,2,0.2l0.4-2.6c-0.7-0.1-1.8-0.2-2.5-0.2C48.3,37.4,47.2,39.1,47.2,41.2"/>
		</defs>
		<clipPath id="SVGID_70_">
			<use xlink:href="#SVGID_69_"  overflow="visible"/>
		</clipPath>
		<g clip-path="url(#SVGID_70_)">
			<defs>
				<rect id="SVGID_71_" x="-309" y="-28" width="484" height="235"/>
			</defs>
			<clipPath id="SVGID_72_">
				<use xlink:href="#SVGID_71_"  overflow="visible"/>
			</clipPath>
			<rect x="41.1" y="32.4" clip-path="url(#SVGID_72_)" fill="#FFFFFF" width="17.8" height="21.4"/>
		</g>
	</g>
	<g>
		<defs>
			<path id="SVGID_73_" d="M100.6,46.1c1.3,0,2.2-1.5,2.2-3.7c0-1.4-0.5-2.2-1.5-2.2c-1.3,0-2.2,1.5-2.2,3.7
				C99.2,45.4,99.7,46.1,100.6,46.1z M104.8,48.7h-2.7l0.1-1c-0.8,0.8-1.6,1.2-2.6,1.2c-2,0-3.4-1.8-3.4-4.6c0-3.7,2.1-6.7,4.6-6.7
				c1.1,0,1.9,0.5,2.7,1.5l0.6-3.9h2.8L104.8,48.7z"/>
		</defs>
		<clipPath id="SVGID_74_">
			<use xlink:href="#SVGID_73_"  overflow="visible"/>
		</clipPath>
		<g clip-path="url(#SVGID_74_)">
			<defs>
				<rect id="SVGID_75_" x="-309" y="-28" width="484" height="235"/>
			</defs>
			<clipPath id="SVGID_76_">
				<use xlink:href="#SVGID_75_"  overflow="visible"/>
			</clipPath>
			<rect x="91.3" y="30.2" clip-path="url(#SVGID_76_)" fill="#FFFFFF" width="20.7" height="23.7"/>
		</g>
	</g>
	<g>
		<defs>
			<path id="SVGID_77_" d="M92.4,37.7c-0.4,3.4-1,6.9-1.5,10.3l-0.1,0.7h2.8c1-6.7,1.3-8,2.8-7.9c0.3-1.4,0.7-2.6,1.1-3.2
				c-1.2-0.3-1.8,0.4-2.7,1.7c0.1-0.6,0.2-1.1,0.2-1.7H92.4"/>
		</defs>
		<clipPath id="SVGID_78_">
			<use xlink:href="#SVGID_77_"  overflow="visible"/>
		</clipPath>
		<g clip-path="url(#SVGID_78_)">
			<defs>
				<rect id="SVGID_79_" x="-309" y="-28" width="484" height="235"/>
			</defs>
			<clipPath id="SVGID_80_">
				<use xlink:href="#SVGID_79_"  overflow="visible"/>
			</clipPath>
			<rect x="85.8" y="32.6" clip-path="url(#SVGID_80_)" fill="#FFFFFF" width="16.7" height="21.1"/>
		</g>
	</g>
	<g>
		<defs>
			<path id="SVGID_81_" d="M69.2,37.7c-0.4,3.4-1,6.9-1.5,10.3l-0.1,0.7h2.8c1-6.7,1.3-8,2.8-7.9c0.3-1.4,0.7-2.6,1.1-3.2
				c-1.2-0.3-1.8,0.4-2.7,1.7c0.1-0.6,0.2-1.1,0.2-1.7H69.2"/>
		</defs>
		<clipPath id="SVGID_82_">
			<use xlink:href="#SVGID_81_"  overflow="visible"/>
		</clipPath>
		<g clip-path="url(#SVGID_82_)">
			<defs>
				<rect id="SVGID_83_" x="-309" y="-28" width="484" height="235"/>
			</defs>
			<clipPath id="SVGID_84_">
				<use xlink:href="#SVGID_83_"  overflow="visible"/>
			</clipPath>
			<rect x="62.6" y="32.6" clip-path="url(#SVGID_84_)" fill="#FFFFFF" width="16.7" height="21.1"/>
		</g>
	</g>
</g>
</svg>
