<?xml version="1.0" encoding="utf-8"?>
<!-- Generator: Adobe Illustrator 18.1.1, SVG Export Plug-In . SVG Version: 6.00 Build 0)  -->
<svg version="1.1" id="Layer_1" xmlns="http://www.w3.org/2000/svg" xmlns:xlink="http://www.w3.org/1999/xlink" x="0px" y="0px"
	 viewBox="0 0 133 82" enable-background="new 0 0 133 82" xml:space="preserve">
<g>
	<g>
		<defs>
			<path id="SVGID_1_" d="M5.5,0h122.1c3,0,5.5,2.4,5.5,5.5v71.1c0,3-2.4,5.5-5.5,5.5H5.5c-3,0-5.5-2.4-5.5-5.5V5.5
				C0,2.4,2.4,0,5.5,0z"/>
		</defs>
		<clipPath id="SVGID_2_">
			<use xlink:href="#SVGID_1_"  overflow="visible"/>
		</clipPath>
		<g clip-path="url(#SVGID_2_)">
			<defs>
				<rect id="SVGID_3_" x="-24" y="-29" width="484" height="235"/>
			</defs>
			<clipPath id="SVGID_4_">
				<use xlink:href="#SVGID_3_"  overflow="visible"/>
			</clipPath>
			<rect x="-5" y="-5" clip-path="url(#SVGID_4_)" fill="#0072CE" width="143" height="92"/>
		</g>
	</g>
	<g>
		<defs>
			<path id="SVGID_5_" d="M70.5,48.7c0,3.1-2.2,3.7-4.5,3.7h-3.2v3.7h-5l-3.2-3.7l-3.3,3.7H41.1V45h10.4l3.2,3.6l3.3-3.6h8.2
				C68.2,45,70.5,45.6,70.5,48.7z M50,53.8h-6.3v-2.2h5.7v-2.3h-5.7v-2h6.5l2.8,3.2L50,53.8z M60.2,55.1l-4-4.5l4-4.4V55.1z
				 M66.1,50.1h-3.3v-2.8h3.4c0.9,0,1.6,0.4,1.6,1.4C67.7,49.6,67.1,50.1,66.1,50.1z M83.5,45h8.6v2.3h-6v2H92v2.3h-5.9v2.2l6,0v2.3
				h-8.6V45z M80.3,50.9c0.6,0.2,1,0.6,1.3,0.9c0.4,0.5,0.4,1,0.4,2v2.2h-2.6v-1.4c0-0.7,0.1-1.6-0.4-2.2c-0.4-0.4-1-0.5-1.9-0.5
				h-2.8v4h-2.6V45h6c1.3,0,2.3,0.1,3.1,0.5c0.8,0.5,1.3,1.2,1.3,2.5C82.1,49.8,80.9,50.7,80.3,50.9z M78.7,49.6
				c-0.3,0.2-0.8,0.2-1.3,0.2h-3.1v-2.5h3.2c0.5,0,0.9,0,1.2,0.2c0.3,0.2,0.5,0.5,0.5,1C79.2,49,79,49.4,78.7,49.6z M102,50.2
				c0.5,0.5,0.8,1.2,0.8,2.3c0,2.4-1.5,3.5-4.1,3.5h-5v-2.4h5c0.5,0,0.8-0.1,1.1-0.3c0.2-0.2,0.3-0.4,0.3-0.7c0-0.3-0.1-0.6-0.3-0.7
				c-0.2-0.2-0.5-0.2-0.9-0.2c-2.4-0.1-5.4,0.1-5.4-3.4c0-1.6,1-3.3,3.7-3.3h5.2v2.4h-4.7c-0.5,0-0.8,0-1,0.2
				c-0.3,0.2-0.4,0.4-0.4,0.8c0,0.4,0.2,0.7,0.6,0.8c0.3,0.1,0.6,0.1,1,0.1l1.4,0C100.4,49.4,101.4,49.6,102,50.2z M112.3,54.7
				c-0.6,0.9-1.8,1.4-3.5,1.4h-5v-2.4h5c0.5,0,0.8-0.1,1-0.3c0.2-0.2,0.3-0.4,0.3-0.7c0-0.3-0.1-0.6-0.3-0.7
				c-0.2-0.2-0.5-0.2-0.9-0.2c-2.4-0.1-5.4,0.1-5.4-3.4c0-1.6,1-3.3,3.7-3.3h5.1v-2.2h-4.8c-1.4,0-2.5,0.4-3.2,0.9v-0.9h-7.1
				c-1.1,0-2.5,0.3-3.1,0.9v-0.9H81.5v0.9c-1-0.7-2.7-0.9-3.5-0.9h-8.3v0.9c-0.8-0.8-2.6-0.9-3.6-0.9h-9.3l-2.1,2.4l-2-2.4H38.8
				v15.4h13.6l2.2-2.4l2.1,2.4l8.4,0v-3.6h0.8c1.1,0,2.4,0,3.6-0.5v4.2h6.9v-4h0.3c0.4,0,0.5,0,0.5,0.5v3.6h21.1
				c1.3,0,2.7-0.4,3.5-1v1h6.7c1.4,0,2.7-0.2,3.8-0.7V54.7z M112.3,47.4h-4.7c-0.5,0-0.8,0-1,0.2c-0.3,0.2-0.4,0.4-0.4,0.8
				c0,0.4,0.2,0.7,0.6,0.8c0.3,0.1,0.6,0.1,1,0.1l1.4,0c1.4,0,2.4,0.3,2.9,0.9c0.1,0.1,0.2,0.2,0.2,0.3V47.4z"/>
		</defs>
		<clipPath id="SVGID_6_">
			<use xlink:href="#SVGID_5_"  overflow="visible"/>
		</clipPath>
		<g clip-path="url(#SVGID_6_)">
			<defs>
				<rect id="SVGID_7_" x="-24" y="-29" width="484" height="235"/>
			</defs>
			<clipPath id="SVGID_8_">
				<use xlink:href="#SVGID_7_"  overflow="visible"/>
			</clipPath>
			<rect x="33.8" y="37.8" clip-path="url(#SVGID_8_)" fill="#FFFFFF" width="83.5" height="25.4"/>
		</g>
	</g>
	<g>
		<defs>
			<path id="SVGID_9_" d="M20.5,39.2h4.4l1-2.5h2.2l1,2.5h8.7v-1.9l0.8,1.9h4.5l0.8-1.9v1.9h21.5l0-4h0.4c0.3,0,0.4,0,0.4,0.5v3.5
				h11.1v-0.9c0.9,0.5,2.3,0.9,4.1,0.9h4.7l1-2.5h2.2l1,2.5h9v-2.3l1.4,2.3h7.2V23.8h-7.2v1.8l-1-1.8h-7.3v1.8l-0.9-1.8h-9.9
				c-1.7,0-3.1,0.2-4.3,0.9v-0.9h-6.9v0.9c-0.8-0.7-1.8-0.9-2.9-0.9h-25l-1.7,4l-1.7-4h-7.9v1.8l-0.9-1.8h-6.7l-3.1,7.3L20.5,39.2
				L20.5,39.2z M105.7,37.1H102l-4.9-8.3v8.3h-5.3l-1-2.5h-5.4l-1,2.5h-3c-1.3,0-2.8-0.3-3.7-1.2c-0.9-0.9-1.4-2.2-1.4-4.2
				c0-1.6,0.3-3.1,1.4-4.3c0.8-0.9,2.1-1.3,3.9-1.3h2.5v2.4h-2.4c-0.9,0-1.5,0.1-2,0.7c-0.4,0.5-0.7,1.3-0.7,2.5
				c0,1.2,0.2,2,0.7,2.6c0.4,0.4,1.1,0.6,1.8,0.6h1.2l3.6-8.7h3.9l4.4,10.5V26h3.9l4.5,7.7V26h2.6V37.1z M75.2,37.1h-2.6V26h2.6
				V37.1z M71,29c0,1.8-1.1,2.7-1.8,2.9c0.6,0.2,1,0.6,1.3,0.9c0.4,0.5,0.4,1,0.4,2v2.2h-2.6l0-1.4c0-0.7,0.1-1.6-0.4-2.2
				C67.5,33.1,67,33,66,33h-2.8v4h-2.6V26h5.9c1.3,0,2.3,0,3.1,0.5C70.6,27,71,27.7,71,29z M58.9,37.1h-8.6V26h8.6v2.3h-6v2h5.9v2.3
				h-5.9v2.2h6V37.1z M48.4,37.1h-2.6l0-8.7L42,37.1h-2.3L36,28.4v8.7h-5.2l-1-2.5h-5.4l-1,2.5h-2.8L25.2,26H29l4.4,10.5V26h4.2
				l3.4,7.5l3.1-7.5h4.3L48.4,37.1L48.4,37.1z M90,32.3l-1.8-4.4l-1.8,4.4H90z M67.7,30.5c-0.4,0.2-0.8,0.2-1.3,0.2h-3.1v-2.5h3.2
				c0.4,0,0.9,0,1.2,0.2c0.3,0.2,0.5,0.5,0.5,1C68.2,30,68,30.4,67.7,30.5z M28.8,32.3L27,27.9l-1.8,4.4H28.8z"/>
		</defs>
		<clipPath id="SVGID_10_">
			<use xlink:href="#SVGID_9_"  overflow="visible"/>
		</clipPath>
		<g clip-path="url(#SVGID_10_)">
			<defs>
				<rect id="SVGID_11_" x="-24" y="-29" width="484" height="235"/>
			</defs>
			<clipPath id="SVGID_12_">
				<use xlink:href="#SVGID_11_"  overflow="visible"/>
			</clipPath>
			<rect x="15.5" y="18.8" clip-path="url(#SVGID_12_)" fill="#FFFFFF" width="97.5" height="25.4"/>
		</g>
	</g>
</g>
</svg>
