<?xml version="1.0" encoding="utf-8"?>
<!-- Generator: Adobe Illustrator 18.1.1, SVG Export Plug-In . SVG Version: 6.00 Build 0)  -->
<svg version="1.1" id="Layer_1" xmlns="http://www.w3.org/2000/svg" xmlns:xlink="http://www.w3.org/1999/xlink" x="0px" y="0px"
	 viewBox="0 0 133 82" enable-background="new 0 0 133 82" xml:space="preserve">
<g>
	<g>
		<defs>
			<path id="SVGID_1_" d="M0,4c0-2.2,1.8-4,4-4h125c2.2,0,4,1.8,4,4v74c0,2.2-1.8,4-4,4H4c-2.2,0-4-1.8-4-4V4z"/>
		</defs>
		<clipPath id="SVGID_2_">
			<use xlink:href="#SVGID_1_"  overflow="visible"/>
		</clipPath>
		<g clip-path="url(#SVGID_2_)">
			<defs>
				<rect id="SVGID_3_" x="-26" y="-118" width="484" height="235"/>
			</defs>
			<clipPath id="SVGID_4_">
				<use xlink:href="#SVGID_3_"  overflow="visible"/>
			</clipPath>
			<rect x="-5" y="-5" clip-path="url(#SVGID_4_)" fill="#26337A" width="143" height="92"/>
		</g>
	</g>
	<g>
		<defs>
			<polyline id="SVGID_5_" points="55.2,54 59.3,28 65.8,28 61.7,54 55.2,54 			"/>
		</defs>
		<clipPath id="SVGID_6_">
			<use xlink:href="#SVGID_5_"  overflow="visible"/>
		</clipPath>
		<g clip-path="url(#SVGID_6_)">
			<defs>
				<rect id="SVGID_7_" x="-26" y="-118" width="484" height="235"/>
			</defs>
			<clipPath id="SVGID_8_">
				<use xlink:href="#SVGID_7_"  overflow="visible"/>
			</clipPath>
			<rect x="50.2" y="23" clip-path="url(#SVGID_8_)" fill="#FFFFFE" width="20.6" height="36.1"/>
		</g>
	</g>
	<g>
		<defs>
			<path id="SVGID_9_" d="M85.4,28.6c-1.3-0.5-3.3-1.1-5.9-1.1c-6.5,0-11,3.5-11,8.6c0,3.7,3.2,5.8,5.7,7.1c2.5,1.3,3.4,2.1,3.4,3.2
				c0,1.7-2,2.5-3.9,2.5c-2.6,0-4-0.4-6.2-1.4l-0.8-0.4L65.8,53c1.5,0.7,4.3,1.4,7.3,1.4c6.9,0,11.3-3.5,11.4-8.9
				c0-3-1.7-5.2-5.5-7.1c-2.3-1.2-3.7-2-3.7-3.2c0-1.1,1.2-2.2,3.7-2.2c2.1,0,3.7,0.5,4.9,1l0.6,0.3L85.4,28.6"/>
		</defs>
		<clipPath id="SVGID_10_">
			<use xlink:href="#SVGID_9_"  overflow="visible"/>
		</clipPath>
		<g clip-path="url(#SVGID_10_)">
			<defs>
				<rect id="SVGID_11_" x="-26" y="-118" width="484" height="235"/>
			</defs>
			<clipPath id="SVGID_12_">
				<use xlink:href="#SVGID_11_"  overflow="visible"/>
			</clipPath>
			<rect x="60.8" y="22.5" clip-path="url(#SVGID_12_)" fill="#FFFFFE" width="29.6" height="36.9"/>
		</g>
	</g>
	<g>
		<defs>
			<path id="SVGID_13_" d="M102.2,28h-5.1c-1.6,0-2.7,0.5-3.4,2.2L84,54.1h6.9c0,0,1.1-3.2,1.4-3.9c0.7,0,7.4,0,8.4,0
				c0.2,0.9,0.8,3.9,0.8,3.9h6.1L102.2,28z M94.1,44.8c0.5-1.5,2.6-7.3,2.6-7.3c0,0.1,0.5-1.5,0.9-2.5l0.4,2.2c0,0,1.3,6.2,1.5,7.5
				H94.1z"/>
		</defs>
		<clipPath id="SVGID_14_">
			<use xlink:href="#SVGID_13_"  overflow="visible"/>
		</clipPath>
		<g clip-path="url(#SVGID_14_)">
			<defs>
				<rect id="SVGID_15_" x="-26" y="-118" width="484" height="235"/>
			</defs>
			<clipPath id="SVGID_16_">
				<use xlink:href="#SVGID_15_"  overflow="visible"/>
			</clipPath>
			<rect x="79" y="23" clip-path="url(#SVGID_16_)" fill="#FFFFFE" width="33.5" height="36.1"/>
		</g>
	</g>
	<g>
		<defs>
			<path id="SVGID_17_" d="M49.7,28l-6.4,17.8l-0.7-3.6c-1.2-4.2-4.9-8.7-9.1-10.9L39.4,54l6.9,0l10.3-26H49.7"/>
		</defs>
		<clipPath id="SVGID_18_">
			<use xlink:href="#SVGID_17_"  overflow="visible"/>
		</clipPath>
		<g clip-path="url(#SVGID_18_)">
			<defs>
				<rect id="SVGID_19_" x="-26" y="-118" width="484" height="235"/>
			</defs>
			<clipPath id="SVGID_20_">
				<use xlink:href="#SVGID_19_"  overflow="visible"/>
			</clipPath>
			<rect x="28.6" y="23" clip-path="url(#SVGID_20_)" fill="#FFFFFE" width="33.1" height="36"/>
		</g>
	</g>
	<g>
		<defs>
			<path id="SVGID_21_" d="M37.4,28H26.8l-0.1,0.5c8.2,2.2,13.6,7.4,15.9,13.6l-2.3-12C39.9,28.5,38.8,28,37.4,28"/>
		</defs>
		<clipPath id="SVGID_22_">
			<use xlink:href="#SVGID_21_"  overflow="visible"/>
		</clipPath>
		<g clip-path="url(#SVGID_22_)">
			<defs>
				<rect id="SVGID_23_" x="-26" y="-118" width="484" height="235"/>
			</defs>
			<clipPath id="SVGID_24_">
				<use xlink:href="#SVGID_23_"  overflow="visible"/>
			</clipPath>
			<rect x="21.7" y="23" clip-path="url(#SVGID_24_)" fill="#EC982D" width="25.9" height="24.2"/>
		</g>
	</g>
</g>
</svg>
