<?xml version="1.0" encoding="utf-8"?>
<!-- Generator: Adobe Illustrator 18.1.1, SVG Export Plug-In . SVG Version: 6.00 Build 0)  -->
<svg version="1.1" id="Layer_1" xmlns="http://www.w3.org/2000/svg" xmlns:xlink="http://www.w3.org/1999/xlink" x="0px" y="0px"
	 viewBox="0 0 133 82" enable-background="new 0 0 133 82" xml:space="preserve">
<g>
	<g>
		<defs>
			<path id="SVGID_1_" d="M0,4c0-2.2,1.8-4,4-4h125c2.2,0,4,1.8,4,4v74c0,2.2-1.8,4-4,4H4c-2.2,0-4-1.8-4-4V4z"/>
		</defs>
		<clipPath id="SVGID_2_">
			<use xlink:href="#SVGID_1_"  overflow="visible"/>
		</clipPath>
		<g clip-path="url(#SVGID_2_)">
			<defs>
				<rect id="SVGID_3_" x="-319" y="-118" width="484" height="235"/>
			</defs>
			<clipPath id="SVGID_4_">
				<use xlink:href="#SVGID_3_"  overflow="visible"/>
			</clipPath>
			<path clip-path="url(#SVGID_4_)" fill="none" stroke="#E6772F" stroke-width="2" stroke-miterlimit="10" d="M0,4c0-2.2,1.8-4,4-4
				h125c2.2,0,4,1.8,4,4v74c0,2.2-1.8,4-4,4H4c-2.2,0-4-1.8-4-4V4z"/>
		</g>
	</g>
	<g>
		<defs>
			<path id="SVGID_5_" d="M0,4c0-2.2,1.8-4,4-4h125c2.2,0,4,1.8,4,4v74c0,2.2-1.8,4-4,4H4c-2.2,0-4-1.8-4-4V4z"/>
		</defs>
		<clipPath id="SVGID_6_">
			<use xlink:href="#SVGID_5_"  overflow="visible"/>
		</clipPath>
		<g clip-path="url(#SVGID_6_)">
			<defs>
				<rect id="SVGID_7_" x="-319" y="-118" width="484" height="235"/>
			</defs>
			<clipPath id="SVGID_8_">
				<use xlink:href="#SVGID_7_"  overflow="visible"/>
			</clipPath>
			<g clip-path="url(#SVGID_8_)" enable-background="new    ">
				<g>
					<defs>
						<rect id="SVGID_9_" width="133" height="82"/>
					</defs>
					<clipPath id="SVGID_10_">
						<use xlink:href="#SVGID_9_"  overflow="visible"/>
					</clipPath>
					<g clip-path="url(#SVGID_10_)">
						<defs>
							<rect id="SVGID_11_" width="133" height="82"/>
						</defs>
						<clipPath id="SVGID_12_">
							<use xlink:href="#SVGID_11_"  overflow="visible"/>
						</clipPath>
						<path clip-path="url(#SVGID_12_)" fill="#FFFFFF" d="M0,4c0-2.2,1.8-4,4-4h125c2.2,0,4,1.8,4,4v74c0,2.2-1.8,4-4,4H4
							c-2.2,0-4-1.8-4-4V4z"/>
					</g>
					<g clip-path="url(#SVGID_10_)">
						<defs>
							<path id="SVGID_13_" d="M0,4c0-2.2,1.8-4,4-4h125c2.2,0,4,1.8,4,4v74c0,2.2-1.8,4-4,4H4c-2.2,0-4-1.8-4-4V4z"/>
						</defs>
						<clipPath id="SVGID_14_">
							<use xlink:href="#SVGID_13_"  overflow="visible"/>
						</clipPath>
						<g clip-path="url(#SVGID_14_)">
							<defs>
								<rect id="SVGID_15_" width="133" height="82"/>
							</defs>
							<clipPath id="SVGID_16_">
								<use xlink:href="#SVGID_15_"  overflow="visible"/>
							</clipPath>
							<path clip-path="url(#SVGID_16_)" fill="none" stroke="#E6772F" stroke-width="2" stroke-miterlimit="10" d="M0,4
								c0-2.2,1.8-4,4-4h125c2.2,0,4,1.8,4,4v74c0,2.2-1.8,4-4,4H4c-2.2,0-4-1.8-4-4V4z"/>
						</g>
					</g>
				</g>
			</g>
		</g>
	</g>
	<g>
		<defs>
			<path id="SVGID_17_" d="M32.1,82H129c2.2,0,4-1.8,4-4V46.1C133,46.1,97.4,70.9,32.1,82z"/>
		</defs>
		<clipPath id="SVGID_18_">
			<use xlink:href="#SVGID_17_"  overflow="visible"/>
		</clipPath>
		<g clip-path="url(#SVGID_18_)">
			<defs>
				<rect id="SVGID_19_" x="-319" y="-118" width="484" height="235"/>
			</defs>
			<clipPath id="SVGID_20_">
				<use xlink:href="#SVGID_19_"  overflow="visible"/>
			</clipPath>
			<g clip-path="url(#SVGID_20_)" enable-background="new    ">
				<g>
					<defs>
						<rect id="SVGID_21_" x="27" y="41" width="111" height="46"/>
					</defs>
					<clipPath id="SVGID_22_">
						<use xlink:href="#SVGID_21_"  overflow="visible"/>
					</clipPath>
					<g clip-path="url(#SVGID_22_)">
						<defs>
							<rect id="SVGID_23_" x="32" y="46" width="101" height="36"/>
						</defs>
						<clipPath id="SVGID_24_">
							<use xlink:href="#SVGID_23_"  overflow="visible"/>
						</clipPath>
						<rect x="27.1" y="41.1" clip-path="url(#SVGID_24_)" fill="#E6772F" width="110.9" height="45.9"/>
					</g>
				</g>
			</g>
		</g>
	</g>
	<g>
		<defs>
			<path id="SVGID_25_" d="M20.7,28.9H16v15.8h4.6c2.4,0,4.2-0.6,5.7-1.8c1.8-1.5,2.9-3.7,2.9-6.1C29.3,32.1,25.7,28.9,20.7,28.9z
				 M24.3,40.8c-1,0.9-2.3,1.3-4.3,1.3h-0.8V31.5H20c2,0,3.3,0.4,4.3,1.3c1.1,1,1.7,2.4,1.7,3.9C26.1,38.3,25.4,39.8,24.3,40.8z"/>
		</defs>
		<clipPath id="SVGID_26_">
			<use xlink:href="#SVGID_25_"  overflow="visible"/>
		</clipPath>
		<g clip-path="url(#SVGID_26_)">
			<defs>
				<rect id="SVGID_27_" x="-319" y="-118" width="484" height="235"/>
			</defs>
			<clipPath id="SVGID_28_">
				<use xlink:href="#SVGID_27_"  overflow="visible"/>
			</clipPath>
			<rect x="11" y="23.9" clip-path="url(#SVGID_28_)" fill="#1A1919" width="23.3" height="25.8"/>
		</g>
	</g>
	<g>
		<defs>
			<rect id="SVGID_29_" x="30.7" y="28.9" width="3.1" height="15.8"/>
		</defs>
		<clipPath id="SVGID_30_">
			<use xlink:href="#SVGID_29_"  overflow="visible"/>
		</clipPath>
		<g clip-path="url(#SVGID_30_)">
			<defs>
				<rect id="SVGID_31_" x="-319" y="-118" width="484" height="235"/>
			</defs>
			<clipPath id="SVGID_32_">
				<use xlink:href="#SVGID_31_"  overflow="visible"/>
			</clipPath>
			<rect x="25.7" y="23.9" clip-path="url(#SVGID_32_)" fill="#1A1919" width="13.1" height="25.8"/>
		</g>
	</g>
	<g>
		<defs>
			<path id="SVGID_33_" d="M41.6,34.9c-1.9-0.7-2.4-1.1-2.4-2c0-1,1-1.7,2.3-1.7c0.9,0,1.7,0.4,2.5,1.3l1.6-2.1
				c-1.3-1.2-3-1.8-4.7-1.8c-2.8,0-5,1.9-5,4.5c0,2.2,1,3.3,4,4.4c1.2,0.4,1.9,0.7,2.2,0.9c0.6,0.4,0.9,1,0.9,1.6
				c0,1.3-1,2.2-2.4,2.2c-1.5,0-2.7-0.7-3.4-2.1l-2,1.9c1.4,2.1,3.2,3,5.6,3c3.3,0,5.6-2.1,5.6-5.2C46.2,37.4,45.1,36.2,41.6,34.9"
				/>
		</defs>
		<clipPath id="SVGID_34_">
			<use xlink:href="#SVGID_33_"  overflow="visible"/>
		</clipPath>
		<g clip-path="url(#SVGID_34_)">
			<defs>
				<rect id="SVGID_35_" x="-319" y="-118" width="484" height="235"/>
			</defs>
			<clipPath id="SVGID_36_">
				<use xlink:href="#SVGID_35_"  overflow="visible"/>
			</clipPath>
			<rect x="30.1" y="23.6" clip-path="url(#SVGID_36_)" fill="#1A1919" width="21.1" height="26.5"/>
		</g>
	</g>
	<g>
		<defs>
			<path id="SVGID_37_" d="M47.2,36.8c0,4.7,3.7,8.3,8.5,8.3c1.3,0,2.5-0.3,3.9-0.9v-3.6c-1.3,1.2-2.4,1.7-3.8,1.7
				c-3.2,0-5.4-2.2-5.4-5.5c0-3,2.3-5.4,5.3-5.4c1.5,0,2.6,0.5,3.9,1.8v-3.6c-1.4-0.7-2.5-1-3.9-1C51,28.5,47.2,32.2,47.2,36.8"/>
		</defs>
		<clipPath id="SVGID_38_">
			<use xlink:href="#SVGID_37_"  overflow="visible"/>
		</clipPath>
		<g clip-path="url(#SVGID_38_)">
			<defs>
				<rect id="SVGID_39_" x="-319" y="-118" width="484" height="235"/>
			</defs>
			<clipPath id="SVGID_40_">
				<use xlink:href="#SVGID_39_"  overflow="visible"/>
			</clipPath>
			<rect x="42.2" y="23.5" clip-path="url(#SVGID_40_)" fill="#1A1919" width="22.4" height="26.5"/>
		</g>
	</g>
	<g>
		<defs>
			<polyline id="SVGID_41_" points="85.1,39.5 80.8,28.9 77.3,28.9 84.2,45.1 85.8,45.1 92.8,28.9 89.4,28.9 85.1,39.5 			"/>
		</defs>
		<clipPath id="SVGID_42_">
			<use xlink:href="#SVGID_41_"  overflow="visible"/>
		</clipPath>
		<g clip-path="url(#SVGID_42_)">
			<defs>
				<rect id="SVGID_43_" x="-319" y="-118" width="484" height="235"/>
			</defs>
			<clipPath id="SVGID_44_">
				<use xlink:href="#SVGID_43_"  overflow="visible"/>
			</clipPath>
			<rect x="72.3" y="23.9" clip-path="url(#SVGID_44_)" fill="#1A1919" width="25.5" height="26.2"/>
		</g>
	</g>
	<g>
		<defs>
			<polyline id="SVGID_45_" points="94.2,44.7 103.1,44.7 103.1,42 97.4,42 97.4,37.7 102.9,37.7 102.9,35.1 97.4,35.1 97.4,31.5 
				103.1,31.5 103.1,28.9 94.2,28.9 94.2,44.7 			"/>
		</defs>
		<clipPath id="SVGID_46_">
			<use xlink:href="#SVGID_45_"  overflow="visible"/>
		</clipPath>
		<g clip-path="url(#SVGID_46_)">
			<defs>
				<rect id="SVGID_47_" x="-319" y="-118" width="484" height="235"/>
			</defs>
			<clipPath id="SVGID_48_">
				<use xlink:href="#SVGID_47_"  overflow="visible"/>
			</clipPath>
			<rect x="89.2" y="23.9" clip-path="url(#SVGID_48_)" fill="#1A1919" width="18.9" height="25.8"/>
		</g>
	</g>
	<g>
		<defs>
			<path id="SVGID_49_" d="M115.6,33.5c0-3-2.1-4.7-5.7-4.7h-4.7v15.8h3.1v-6.4h0.4l4.3,6.4h3.9l-5.1-6.7
				C114.3,37.6,115.6,36,115.6,33.5z M109.3,36.1h-0.9v-4.8h1c2,0,3,0.8,3,2.4C112.3,35.3,111.3,36.1,109.3,36.1z"/>
		</defs>
		<clipPath id="SVGID_50_">
			<use xlink:href="#SVGID_49_"  overflow="visible"/>
		</clipPath>
		<g clip-path="url(#SVGID_50_)">
			<defs>
				<rect id="SVGID_51_" x="-319" y="-118" width="484" height="235"/>
			</defs>
			<clipPath id="SVGID_52_">
				<use xlink:href="#SVGID_51_"  overflow="visible"/>
			</clipPath>
			<rect x="100.2" y="23.9" clip-path="url(#SVGID_52_)" fill="#1A1919" width="21.8" height="25.8"/>
		</g>
	</g>
	<g>
		<defs>
			<path id="SVGID_53_" d="M77.8,36.8c0,4.6-3.8,8.3-8.4,8.3c-4.6,0-8.4-3.7-8.4-8.3c0-4.6,3.8-8.3,8.4-8.3
				C74,28.6,77.8,32.3,77.8,36.8"/>
		</defs>
		<clipPath id="SVGID_54_">
			<use xlink:href="#SVGID_53_"  overflow="visible"/>
		</clipPath>
		<g clip-path="url(#SVGID_54_)">
			<defs>
				<rect id="SVGID_55_" x="-319" y="-118" width="484" height="235"/>
			</defs>
			<clipPath id="SVGID_56_">
				<use xlink:href="#SVGID_55_"  overflow="visible"/>
			</clipPath>
			<rect x="56" y="23.6" clip-path="url(#SVGID_56_)" fill="#E6772F" width="26.8" height="26.5"/>
		</g>
	</g>
</g>
</svg>
