<?xml version="1.0" encoding="utf-8"?>
<!-- Generator: Adobe Illustrator 18.1.1, SVG Export Plug-In . SVG Version: 6.00 Build 0)  -->
<svg version="1.1" id="Layer_1" xmlns="http://www.w3.org/2000/svg" xmlns:xlink="http://www.w3.org/1999/xlink" x="0px" y="0px"
	 viewBox="0 0 240.7 251" enable-background="new 0 0 240.7 251" xml:space="preserve">
<g>
	<path d="M240.7,118.8h-6.8V89.1c0-15.7-12.8-28.4-28.4-28.4h-177C12.8,60.7,0,73.4,0,89.1v133.4c0,15.7,12.8,28.4,28.4,28.4h177
		c15.7,0,28.4-12.8,28.4-28.4v-28.9l-0.9-2h7.7V118.8z"/>
	<path d="M210.7,191.6h8.4v30.9c0,7.5-6.2,13.7-13.7,13.7h-177c-7.5,0-13.7-6.2-13.7-13.7V89.1c0-7.5,6.2-13.7,13.7-13.7h177
		c7.5,0,13.7,6.2,13.7,13.7v29.7h-49.4c-20.1,0-36.4,16.3-36.4,36.4c0,20.1,16.3,36.4,36.4,36.4h36.8"/>
	<path fill="#FFFFFF" d="M169.7,176.9h56.2v-43.3h-56.2c-12,0-21.6,9.7-21.7,21.7C148.1,167.2,157.8,176.8,169.7,176.9z"/>
	<path fill="#FFFFFF" d="M27.4,146.1h-4.2v-14.7h4.2V146.1z M27.4,152.4h-4.2v14.8h4.2V152.4z M27.4,173.5h-4.2v14.8h4.2V173.5z
		 M27.4,194.5h-4.2v14.7h4.2V194.5z M27.4,215.8v-0.2h-4.2v0.2c0,6.1,4.4,11.2,10.2,12.4l0.8-4.1C30.3,223.3,27.4,219.9,27.4,215.8z
		 M197.9,224.3h-10.3v4.2h10.3c1.8,0,3.6-0.4,5.2-1.1l-1.7-3.9C200.3,224,199.2,224.3,197.9,224.3z M206.5,215.8
		c0,1.6-0.5,3.2-1.3,4.4l3.6,2.3c1.2-1.9,1.9-4.3,1.9-6.7V207h-4.2L206.5,215.8L206.5,215.8z M46.9,83.1h-11c-1.6,0-3,0.3-4.4,0.8
		l1.4,4v0c0.9-0.3,1.9-0.5,3-0.5h11L46.9,83.1L46.9,83.1z M145.5,228.5h14.8v-4.2h-14.8V228.5z M27.4,110.3h-4.2V125h4.2V110.3z
		 M166.6,228.5h14.7v-4.2h-14.7V228.5z M27.4,95.8c0-1.8,0.6-3.5,1.6-4.9l-3.4-2.5c-1.5,2.1-2.4,4.6-2.4,7.4v8.2h4.2L27.4,95.8
		L27.4,95.8z M173.3,83.1h-14.7v4.2h14.7V83.1z M131.2,83.1h-14.7v4.2h14.7V83.1z M124.4,228.5h14.7v-4.2h-14.7V228.5z M152.3,83.1
		h-14.8v4.2h14.8V83.1z M206.5,117.7h4.2V103h-4.2V117.7z M201.3,83.5l-1.1,4.1h0c3.6,1,6.3,4.3,6.3,8.1v0.9h4.2v-0.9
		C210.7,89.9,206.7,85,201.3,83.5z M194.4,83.1h-14.7v4.2h14.7V83.1z M61.2,228.5H76v-4.2H61.2V228.5z M89.1,83.1H74.3v4.2h14.7
		V83.1z M40.1,228.5h14.7v-4.2H40.1V228.5z M68,83.1H53.2v4.2H68L68,83.1L68,83.1z M110.1,83.1H95.4v4.2h14.8V83.1z M82.3,228.5H97
		v-4.2H82.3V228.5z M103.3,228.5h14.7v-4.2h-14.7V228.5z M210.7,191.6v9.1h-4.2v-9.1"/>
	<path d="M172.3,142.3c-7.1,0-12.9,5.8-12.9,12.9c0,7.1,5.8,12.9,12.9,12.9c7.1,0,12.9-5.8,12.9-12.9
		C185.2,148.1,179.4,142.3,172.3,142.3z"/>
	<path d="M161.5,5.6c-1.9-4.6-7.2-6.8-11.8-4.9L30.5,49.8c-1.5,0.6-2.7,1.6-3.7,2.9h154L161.5,5.6z"/>
</g>
</svg>
